<svg width="866" height="474" viewBox="0 0 866 474" fill="none" xmlns="http://www.w3.org/2000/svg">
<rect x="20" y="34" width="190" height="420" rx="5" fill="#4888C7"/>
<rect x="65.5" y="104.5" width="99" height="44" rx="4.5" fill="#E5F2FC"/>
<path d="M86.88 131.617C85.216 131.617 84.15 130.603 84.15 128.835V127.522C84.15 125.754 85.216 124.74 86.88 124.74C87.543 124.74 88.102 124.935 88.518 125.299V121.88H89.623V131.5H88.518V131.058C88.102 131.422 87.543 131.617 86.88 131.617ZM85.255 128.835C85.255 130.187 85.918 130.577 86.88 130.577C87.777 130.577 88.518 130.187 88.518 128.835V127.522C88.518 126.3 87.777 125.78 86.88 125.78C85.918 125.78 85.255 126.3 85.255 127.522V128.835ZM91.3102 127.522C91.3102 125.754 92.3892 124.74 94.0532 124.74C95.7172 124.74 96.7832 125.754 96.7832 127.522V128.835C96.7832 130.603 95.7172 131.617 94.0532 131.617C92.3892 131.617 91.3102 130.603 91.3102 128.835V127.522ZM92.4152 128.835C92.4152 130.187 93.0912 130.577 94.0532 130.577C95.0152 130.577 95.6782 130.187 95.6782 128.835V127.522C95.6782 126.3 95.0152 125.78 94.0532 125.78C93.0912 125.78 92.4152 126.3 92.4152 127.522V128.835ZM100.832 131.617C99.1685 131.617 98.0895 130.603 98.0895 128.835V127.522C98.0895 125.754 99.1685 124.74 100.832 124.74C102.392 124.74 103.523 125.624 103.549 127.197H102.444C102.418 126.209 101.703 125.78 100.832 125.78C99.8705 125.78 99.1945 126.3 99.1945 127.522V128.835C99.1945 130.187 99.8705 130.577 100.832 130.577C101.703 130.577 102.418 130.252 102.444 129.186H103.549C103.523 130.733 102.379 131.617 100.832 131.617ZM110.55 124.987L106.78 127.912L110.628 131.37V131.5H109.198L106.455 129.043V131.5H105.363V121.88H106.455V126.872L109.016 124.857H110.55V124.987ZM113.896 131.617C112.232 131.617 111.153 130.603 111.153 128.835V127.522C111.153 125.754 112.232 124.74 113.896 124.74C115.456 124.74 116.587 125.624 116.613 127.522V128.575H112.258V128.835C112.258 130.187 112.934 130.577 113.896 130.577C114.702 130.577 115.378 130.291 115.495 129.407H116.6C116.483 130.811 115.365 131.617 113.896 131.617ZM112.258 127.6H115.508V127.522C115.482 126.196 114.767 125.754 113.896 125.754C112.934 125.754 112.258 126.196 112.258 127.522V127.6ZM118.427 131.5V124.857H119.532V125.624C119.857 125.143 120.338 124.857 121.222 124.857H121.885V125.962H121.222C120.221 125.962 119.532 126.521 119.532 127.899V131.5H118.427ZM126.768 131.5V124.857H127.873V125.624C128.198 125.143 128.679 124.857 129.563 124.857H130.226V125.962H129.563C128.562 125.962 127.873 126.521 127.873 127.899V131.5H126.768ZM135.954 128.861V124.857H137.059V129.108C137.059 130.629 136.123 131.617 134.394 131.617C132.652 131.617 131.716 130.629 131.716 129.108V124.857H132.821V128.861C132.821 129.979 133.315 130.577 134.394 130.577C135.46 130.577 135.954 129.979 135.954 128.861ZM139.273 131.5V124.857H140.378V125.533C140.729 125.039 141.366 124.74 142.25 124.74C143.719 124.74 144.694 125.728 144.694 127.249V131.5H143.589V127.496C143.589 126.378 143.056 125.78 142.003 125.78C141.119 125.78 140.378 126.261 140.378 127.496V131.5H139.273Z" fill="black"/>
<rect x="65.5" y="104.5" width="99" height="44" rx="4.5" stroke="black"/>
<rect x="65.5" y="189.5" width="99" height="44" rx="4.5" fill="#E5F2FC"/>
<path d="M82.88 216.617C81.216 216.617 80.15 215.603 80.15 213.835V212.522C80.15 210.754 81.216 209.74 82.88 209.74C83.543 209.74 84.102 209.935 84.518 210.299V206.88H85.623V216.5H84.518V216.058C84.102 216.422 83.543 216.617 82.88 216.617ZM81.255 213.835C81.255 215.187 81.918 215.577 82.88 215.577C83.777 215.577 84.518 215.187 84.518 213.835V212.522C84.518 211.3 83.777 210.78 82.88 210.78C81.918 210.78 81.255 211.3 81.255 212.522V213.835ZM87.3102 212.522C87.3102 210.754 88.3892 209.74 90.0532 209.74C91.7172 209.74 92.7832 210.754 92.7832 212.522V213.835C92.7832 215.603 91.7172 216.617 90.0532 216.617C88.3892 216.617 87.3102 215.603 87.3102 213.835V212.522ZM88.4152 213.835C88.4152 215.187 89.0912 215.577 90.0532 215.577C91.0152 215.577 91.6782 215.187 91.6782 213.835V212.522C91.6782 211.3 91.0152 210.78 90.0532 210.78C89.0912 210.78 88.4152 211.3 88.4152 212.522V213.835ZM96.8325 216.617C95.1685 216.617 94.0895 215.603 94.0895 213.835V212.522C94.0895 210.754 95.1685 209.74 96.8325 209.74C98.3925 209.74 99.5235 210.624 99.5495 212.197H98.4445C98.4185 211.209 97.7035 210.78 96.8325 210.78C95.8705 210.78 95.1945 211.3 95.1945 212.522V213.835C95.1945 215.187 95.8705 215.577 96.8325 215.577C97.7035 215.577 98.4185 215.252 98.4445 214.186H99.5495C99.5235 215.733 98.3795 216.617 96.8325 216.617ZM106.55 209.987L102.78 212.912L106.628 216.37V216.5H105.198L102.455 214.043V216.5H101.363V206.88H102.455V211.872L105.016 209.857H106.55V209.987ZM109.896 216.617C108.232 216.617 107.153 215.603 107.153 213.835V212.522C107.153 210.754 108.232 209.74 109.896 209.74C111.456 209.74 112.587 210.624 112.613 212.522V213.575H108.258V213.835C108.258 215.187 108.934 215.577 109.896 215.577C110.702 215.577 111.378 215.291 111.495 214.407H112.6C112.483 215.811 111.365 216.617 109.896 216.617ZM108.258 212.6H111.508V212.522C111.482 211.196 110.767 210.754 109.896 210.754C108.934 210.754 108.258 211.196 108.258 212.522V212.6ZM114.427 216.5V209.857H115.532V210.624C115.857 210.143 116.338 209.857 117.222 209.857H117.885V210.962H117.222C116.221 210.962 115.532 211.521 115.532 212.899V216.5H114.427ZM125.511 216.617C124.848 216.617 124.289 216.422 123.873 216.058V216.5H122.768V206.88H123.873V210.299C124.289 209.935 124.848 209.74 125.511 209.74C127.175 209.74 128.241 210.754 128.241 212.522V213.835C128.241 215.603 127.175 216.617 125.511 216.617ZM123.873 213.835C123.873 215.187 124.614 215.577 125.511 215.577C126.473 215.577 127.136 215.187 127.136 213.835V212.522C127.136 211.3 126.473 210.78 125.511 210.78C124.614 210.78 123.873 211.3 123.873 212.522V213.835ZM134.163 213.861V209.857H135.268V214.108C135.268 215.629 134.332 216.617 132.603 216.617C130.861 216.617 129.925 215.629 129.925 214.108V209.857H131.03V213.861C131.03 214.979 131.524 215.577 132.603 215.577C133.669 215.577 134.163 214.979 134.163 213.861ZM137.417 216.5V209.857H138.509V216.5H137.417ZM137.352 208.479V207.205H138.574V208.479H137.352ZM142.29 216.5C141.263 216.5 140.782 215.967 140.782 215.148V206.88H141.887V215.46H143.018V216.5H142.29ZM146.661 216.617C144.997 216.617 143.931 215.603 143.931 213.835V212.522C143.931 210.754 144.997 209.74 146.661 209.74C147.324 209.74 147.883 209.935 148.299 210.299V206.88H149.404V216.5H148.299V216.058C147.883 216.422 147.324 216.617 146.661 216.617ZM145.036 213.835C145.036 215.187 145.699 215.577 146.661 215.577C147.558 215.577 148.299 215.187 148.299 213.835V212.522C148.299 211.3 147.558 210.78 146.661 210.78C145.699 210.78 145.036 211.3 145.036 212.522V213.835Z" fill="black"/>
<rect x="65.5" y="189.5" width="99" height="44" rx="4.5" stroke="black"/>
<rect x="65.5" y="274.5" width="99" height="44" rx="4.5" fill="#E5F2FC"/>
<path d="M85.88 301.617C84.216 301.617 83.15 300.603 83.15 298.835V297.522C83.15 295.754 84.216 294.74 85.88 294.74C86.543 294.74 87.102 294.935 87.518 295.299V291.88H88.623V301.5H87.518V301.058C87.102 301.422 86.543 301.617 85.88 301.617ZM84.255 298.835C84.255 300.187 84.918 300.577 85.88 300.577C86.777 300.577 87.518 300.187 87.518 298.835V297.522C87.518 296.3 86.777 295.78 85.88 295.78C84.918 295.78 84.255 296.3 84.255 297.522V298.835ZM90.3102 297.522C90.3102 295.754 91.3892 294.74 93.0532 294.74C94.7172 294.74 95.7832 295.754 95.7832 297.522V298.835C95.7832 300.603 94.7172 301.617 93.0532 301.617C91.3892 301.617 90.3102 300.603 90.3102 298.835V297.522ZM91.4152 298.835C91.4152 300.187 92.0912 300.577 93.0532 300.577C94.0152 300.577 94.6782 300.187 94.6782 298.835V297.522C94.6782 296.3 94.0152 295.78 93.0532 295.78C92.0912 295.78 91.4152 296.3 91.4152 297.522V298.835ZM99.8325 301.617C98.1685 301.617 97.0895 300.603 97.0895 298.835V297.522C97.0895 295.754 98.1685 294.74 99.8325 294.74C101.392 294.74 102.523 295.624 102.549 297.197H101.444C101.418 296.209 100.703 295.78 99.8325 295.78C98.8705 295.78 98.1945 296.3 98.1945 297.522V298.835C98.1945 300.187 98.8705 300.577 99.8325 300.577C100.703 300.577 101.418 300.252 101.444 299.186H102.549C102.523 300.733 101.379 301.617 99.8325 301.617ZM109.55 294.987L105.78 297.912L109.628 301.37V301.5H108.198L105.455 299.043V301.5H104.363V291.88H105.455V296.872L108.016 294.857H109.55V294.987ZM112.896 301.617C111.232 301.617 110.153 300.603 110.153 298.835V297.522C110.153 295.754 111.232 294.74 112.896 294.74C114.456 294.74 115.587 295.624 115.613 297.522V298.575H111.258V298.835C111.258 300.187 111.934 300.577 112.896 300.577C113.702 300.577 114.378 300.291 114.495 299.407H115.6C115.483 300.811 114.365 301.617 112.896 301.617ZM111.258 297.6H114.508V297.522C114.482 296.196 113.767 295.754 112.896 295.754C111.934 295.754 111.258 296.196 111.258 297.522V297.6ZM117.427 301.5V294.857H118.532V295.624C118.857 295.143 119.338 294.857 120.222 294.857H120.885V295.962H120.222C119.221 295.962 118.532 296.521 118.532 297.899V301.5H117.427ZM128.511 301.617C127.848 301.617 127.289 301.422 126.873 301.058V304.477H125.768V294.857H126.873V295.299C127.289 294.935 127.848 294.74 128.511 294.74C130.175 294.74 131.241 295.754 131.241 297.522V298.835C131.241 300.603 130.175 301.617 128.511 301.617ZM126.873 298.835C126.873 299.927 127.614 300.577 128.511 300.577C129.473 300.577 130.136 299.927 130.136 298.835V297.522C130.136 296.3 129.473 295.78 128.511 295.78C127.614 295.78 126.873 296.3 126.873 297.522V298.835ZM137.163 298.861V294.857H138.268V299.108C138.268 300.629 137.332 301.617 135.603 301.617C133.861 301.617 132.925 300.629 132.925 299.108V294.857H134.03V298.861C134.03 299.979 134.524 300.577 135.603 300.577C136.669 300.577 137.163 299.979 137.163 298.861ZM141.99 301.5C140.963 301.5 140.482 300.967 140.482 300.148V291.88H141.587V300.46H142.718V301.5H141.99ZM145.658 301.5C144.631 301.5 144.15 300.967 144.15 300.148V291.88H145.255V300.46H146.386V301.5H145.658Z" fill="black"/>
<rect x="65.5" y="274.5" width="99" height="44" rx="4.5" stroke="black"/>
<rect x="36.5" y="20.5" width="64" height="27" rx="4.5" fill="#E5F2FC"/>
<path d="M47.465 33.6C47.465 32.95 47.58 32.315 47.81 31.695C48.05 31.065 48.395 30.495 48.845 29.985C49.295 29.465 49.845 29.055 50.495 28.755C51.145 28.445 51.885 28.29 52.715 28.29C53.695 28.29 54.54 28.505 55.25 28.935C55.97 29.365 56.505 29.925 56.855 30.615L55.265 31.71C55.085 31.31 54.85 30.995 54.56 30.765C54.27 30.525 53.96 30.36 53.63 30.27C53.3 30.17 52.975 30.12 52.655 30.12C52.135 30.12 51.68 30.225 51.29 30.435C50.91 30.645 50.59 30.92 50.33 31.26C50.07 31.6 49.875 31.98 49.745 32.4C49.625 32.82 49.565 33.24 49.565 33.66C49.565 34.13 49.64 34.585 49.79 35.025C49.94 35.455 50.15 35.84 50.42 36.18C50.7 36.51 51.03 36.775 51.41 36.975C51.8 37.165 52.225 37.26 52.685 37.26C53.015 37.26 53.35 37.205 53.69 37.095C54.03 36.985 54.345 36.81 54.635 36.57C54.925 36.33 55.15 36.02 55.31 35.64L57.005 36.615C56.795 37.145 56.45 37.595 55.97 37.965C55.5 38.335 54.97 38.615 54.38 38.805C53.79 38.995 53.205 39.09 52.625 39.09C51.865 39.09 51.17 38.935 50.54 38.625C49.91 38.305 49.365 37.885 48.905 37.365C48.455 36.835 48.1 36.245 47.84 35.595C47.59 34.935 47.465 34.27 47.465 33.6ZM58.1832 28.05H60.1932V36.48C60.1932 36.84 60.2532 37.085 60.3732 37.215C60.4932 37.335 60.6582 37.395 60.8682 37.395C61.0282 37.395 61.1932 37.375 61.3632 37.335C61.5332 37.295 61.6832 37.245 61.8132 37.185L62.0832 38.715C61.8132 38.845 61.4982 38.945 61.1382 39.015C60.7782 39.085 60.4532 39.12 60.1632 39.12C59.5332 39.12 59.0432 38.955 58.6932 38.625C58.3532 38.285 58.1832 37.805 58.1832 37.185V28.05ZM62.9589 39V31.14H64.9689V39H62.9589ZM62.9589 30.045V28.05H64.9689V30.045H62.9589ZM70.4272 39.15C69.7972 39.15 69.2272 39.045 68.7172 38.835C68.2072 38.615 67.7722 38.32 67.4122 37.95C67.0522 37.57 66.7722 37.14 66.5722 36.66C66.3822 36.17 66.2872 35.655 66.2872 35.115C66.2872 34.365 66.4522 33.68 66.7822 33.06C67.1222 32.44 67.6022 31.945 68.2222 31.575C68.8522 31.195 69.5922 31.005 70.4422 31.005C71.3022 31.005 72.0372 31.195 72.6472 31.575C73.2572 31.945 73.7222 32.44 74.0422 33.06C74.3722 33.67 74.5372 34.33 74.5372 35.04C74.5372 35.16 74.5322 35.285 74.5222 35.415C74.5122 35.535 74.5022 35.635 74.4922 35.715H68.4172C68.4572 36.115 68.5722 36.465 68.7622 36.765C68.9622 37.065 69.2122 37.295 69.5122 37.455C69.8222 37.605 70.1522 37.68 70.5022 37.68C70.9022 37.68 71.2772 37.585 71.6272 37.395C71.9872 37.195 72.2322 36.935 72.3622 36.615L74.0872 37.095C73.8972 37.495 73.6222 37.85 73.2622 38.16C72.9122 38.47 72.4972 38.715 72.0172 38.895C71.5372 39.065 71.0072 39.15 70.4272 39.15ZM68.3722 34.44H72.4822C72.4422 34.04 72.3272 33.695 72.1372 33.405C71.9572 33.105 71.7172 32.875 71.4172 32.715C71.1172 32.545 70.7822 32.46 70.4122 32.46C70.0522 32.46 69.7222 32.545 69.4222 32.715C69.1322 32.875 68.8922 33.105 68.7022 33.405C68.5222 33.695 68.4122 34.04 68.3722 34.44ZM83.0667 39H81.0567V34.59C81.0567 33.96 80.9467 33.5 80.7267 33.21C80.5067 32.92 80.2017 32.775 79.8117 32.775C79.5417 32.775 79.2667 32.845 78.9867 32.985C78.7167 33.125 78.4717 33.32 78.2517 33.57C78.0317 33.81 77.8717 34.09 77.7717 34.41V39H75.7617V31.14H77.5767V32.595C77.7767 32.255 78.0317 31.97 78.3417 31.74C78.6517 31.5 79.0067 31.32 79.4067 31.2C79.8167 31.07 80.2467 31.005 80.6967 31.005C81.1867 31.005 81.5867 31.095 81.8967 31.275C82.2167 31.445 82.4567 31.68 82.6167 31.98C82.7867 32.27 82.9017 32.6 82.9617 32.97C83.0317 33.34 83.0667 33.715 83.0667 34.095V39ZM89.4805 38.595C89.3105 38.665 89.1055 38.745 88.8655 38.835C88.6255 38.925 88.3655 38.995 88.0855 39.045C87.8155 39.105 87.5405 39.135 87.2605 39.135C86.8905 39.135 86.5505 39.07 86.2405 38.94C85.9305 38.81 85.6805 38.605 85.4905 38.325C85.3105 38.035 85.2205 37.66 85.2205 37.2V32.685H84.1855V31.14H85.2205V28.59H87.2305V31.14H88.8805V32.685H87.2305V36.525C87.2405 36.795 87.3155 36.99 87.4555 37.11C87.5955 37.23 87.7705 37.29 87.9805 37.29C88.1905 37.29 88.3955 37.255 88.5955 37.185C88.7955 37.115 88.9555 37.055 89.0755 37.005L89.4805 38.595Z" fill="black"/>
<rect x="36.5" y="20.5" width="64" height="27" rx="4.5" stroke="black"/>
<rect x="230" y="34" width="406" height="420" rx="5" fill="#4888C7"/>
<rect x="250.5" y="54.5" width="99" height="379" rx="4.5" fill="#E5F2FC"/>
<path d="M280.186 239.895C282.071 239.895 282.734 238.673 282.734 236.97V235.93C282.734 234.227 282.071 233.005 280.186 233.005H278.444V239.895H280.186ZM277.3 241V231.9H280.186C282.604 231.9 283.904 233.447 283.904 235.93V236.97C283.904 239.453 282.604 241 280.186 241H277.3ZM285.334 237.022C285.334 235.254 286.413 234.24 288.077 234.24C289.741 234.24 290.807 235.254 290.807 237.022V238.335C290.807 240.103 289.741 241.117 288.077 241.117C286.413 241.117 285.334 240.103 285.334 238.335V237.022ZM286.439 238.335C286.439 239.687 287.115 240.077 288.077 240.077C289.039 240.077 289.702 239.687 289.702 238.335V237.022C289.702 235.8 289.039 235.28 288.077 235.28C287.115 235.28 286.439 235.8 286.439 237.022V238.335ZM294.856 241.117C293.192 241.117 292.113 240.103 292.113 238.335V237.022C292.113 235.254 293.192 234.24 294.856 234.24C296.416 234.24 297.547 235.124 297.573 236.697H296.468C296.442 235.709 295.727 235.28 294.856 235.28C293.894 235.28 293.218 235.8 293.218 237.022V238.335C293.218 239.687 293.894 240.077 294.856 240.077C295.727 240.077 296.442 239.752 296.468 238.686H297.573C297.547 240.233 296.403 241.117 294.856 241.117ZM304.574 234.487L300.804 237.412L304.652 240.87V241H303.222L300.479 238.543V241H299.387V231.38H300.479V236.372L303.04 234.357H304.574V234.487ZM307.919 241.117C306.255 241.117 305.176 240.103 305.176 238.335V237.022C305.176 235.254 306.255 234.24 307.919 234.24C309.479 234.24 310.61 235.124 310.636 237.022V238.075H306.281V238.335C306.281 239.687 306.957 240.077 307.919 240.077C308.725 240.077 309.401 239.791 309.518 238.907H310.623C310.506 240.311 309.388 241.117 307.919 241.117ZM306.281 237.1H309.531V237.022C309.505 235.696 308.79 235.254 307.919 235.254C306.957 235.254 306.281 235.696 306.281 237.022V237.1ZM312.45 241V234.357H313.555V235.124C313.88 234.643 314.361 234.357 315.245 234.357H315.908V235.462H315.245C314.244 235.462 313.555 236.021 313.555 237.399V241H312.45ZM279.38 257.117C277.716 257.117 276.65 256.103 276.65 254.335V253.022C276.65 251.254 277.716 250.24 279.38 250.24C280.043 250.24 280.602 250.435 281.018 250.799V247.38H282.123V257H281.018V256.558C280.602 256.922 280.043 257.117 279.38 257.117ZM277.755 254.335C277.755 255.687 278.418 256.077 279.38 256.077C280.277 256.077 281.018 255.687 281.018 254.335V253.022C281.018 251.8 280.277 251.28 279.38 251.28C278.418 251.28 277.755 251.8 277.755 253.022V254.335ZM286.54 257.117C284.876 257.117 283.81 256.103 283.81 254.335V253.022C283.81 251.254 284.876 250.24 286.54 250.24C287.203 250.24 287.762 250.435 288.178 250.799V250.357H289.283V257H288.178V256.558C287.762 256.922 287.203 257.117 286.54 257.117ZM284.915 254.335C284.915 255.687 285.578 256.077 286.54 256.077C287.437 256.077 288.178 255.687 288.178 254.335V253.022C288.178 251.8 287.437 251.28 286.54 251.28C285.578 251.28 284.915 251.8 284.915 253.022V254.335ZM293.713 257.117C292.049 257.117 290.97 256.103 290.97 254.335V253.022C290.97 251.254 292.049 250.24 293.713 250.24C295.273 250.24 296.404 251.124 296.43 253.022V254.075H292.075V254.335C292.075 255.687 292.751 256.077 293.713 256.077C294.519 256.077 295.195 255.791 295.312 254.907H296.417C296.3 256.311 295.182 257.117 293.713 257.117ZM292.075 253.1H295.325V253.022C295.299 251.696 294.584 251.254 293.713 251.254C292.751 251.254 292.075 251.696 292.075 253.022V253.1ZM298.244 257V250.357H299.349V251.033C299.7 250.539 300.285 250.24 301.182 250.24C302.053 250.24 302.742 250.591 303.158 251.189C303.548 250.682 304.159 250.24 305.329 250.24C306.798 250.24 307.825 251.228 307.825 252.749V257H306.72V252.996C306.72 251.878 306.213 251.28 305.16 251.28C304.276 251.28 303.6 251.761 303.6 252.996V257H302.495V252.996C302.495 251.878 301.988 251.28 300.935 251.28C300.051 251.28 299.349 251.761 299.349 252.996V257H298.244ZM309.518 253.022C309.518 251.254 310.597 250.24 312.261 250.24C313.925 250.24 314.991 251.254 314.991 253.022V254.335C314.991 256.103 313.925 257.117 312.261 257.117C310.597 257.117 309.518 256.103 309.518 254.335V253.022ZM310.623 254.335C310.623 255.687 311.299 256.077 312.261 256.077C313.223 256.077 313.886 255.687 313.886 254.335V253.022C313.886 251.8 313.223 251.28 312.261 251.28C311.299 251.28 310.623 251.8 310.623 253.022V254.335ZM316.817 257V250.357H317.922V251.033C318.273 250.539 318.91 250.24 319.794 250.24C321.263 250.24 322.238 251.228 322.238 252.749V257H321.133V252.996C321.133 251.878 320.6 251.28 319.547 251.28C318.663 251.28 317.922 251.761 317.922 252.996V257H316.817Z" fill="black"/>
<rect x="250.5" y="54.5" width="99" height="379" rx="4.5" stroke="black"/>
<path d="M383 107L373 101.226V112.774L383 107ZM350 108H374V106H350V108Z" fill="black"/>
<path d="M383 168L373 162.226V173.774L383 168ZM350 169H352.75V167H350V169ZM358.25 169H363.75V167H358.25V169ZM369.25 169H374.75V167H369.25V169Z" fill="black"/>
<rect x="383.5" y="64.5" width="99" height="176" rx="4.5" fill="#E5F2FC"/>
<mask id="mask0_9_253" style="mask-type:luminance" maskUnits="userSpaceOnUse" x="415" y="87" width="36" height="31">
<path d="M450.5 87.3459H415.5V117.34H450.5V87.3459Z" fill="white"/>
</mask>
<g mask="url(#mask0_9_253)">
<path d="M449.123 110.47C447.259 111.446 437.582 115.426 435.498 116.518C433.414 117.611 432.297 117.579 430.667 116.8C429.037 116.021 418.775 111.847 416.915 110.958C415.978 110.518 415.5 110.143 415.5 109.792V106.251C415.5 106.251 428.905 103.342 431.069 102.558C433.232 101.774 433.98 101.755 435.818 102.429C437.656 103.103 448.676 105.092 450.495 105.752V109.242C450.495 109.605 450.077 109.959 449.123 110.468V110.47Z" fill="#A32422"/>
<path d="M449.123 106.947C447.259 107.918 437.582 111.898 435.498 112.971C433.414 114.044 432.297 114.035 430.667 113.258C429.037 112.481 418.775 108.307 416.915 107.425C415.055 106.543 415.02 105.926 416.843 105.214C418.667 104.502 428.905 100.493 431.069 99.7042C433.232 98.9153 433.98 98.8986 435.818 99.5751C437.656 100.252 447.292 104.079 449.102 104.745C450.911 105.412 450.995 105.96 449.123 106.928V106.947Z" fill="#DC382C"/>
<path d="M449.123 104.705C447.259 105.678 437.582 109.655 435.498 110.729C433.414 111.802 432.307 111.792 430.677 111.011C429.046 110.229 418.775 106.079 416.915 105.192C415.978 104.748 415.5 104.375 415.5 104.021V100.493C415.5 100.493 428.905 97.5743 431.069 96.7903C433.232 96.0062 433.98 95.9847 435.818 96.6684C437.656 97.352 448.676 99.3217 450.495 99.9862V103.476C450.495 103.84 450.077 104.203 449.123 104.705Z" fill="#A32422"/>
<path d="M449.123 101.165C447.259 102.14 437.582 106.118 435.498 107.191C433.414 108.264 432.297 108.257 430.667 107.478C429.037 106.698 418.775 102.542 416.915 101.652C415.055 100.763 415.022 100.158 416.843 99.446C418.665 98.7337 428.905 94.7154 431.069 93.9481C433.232 93.1808 433.98 93.133 435.818 93.7999C437.656 94.4668 447.292 98.3273 449.102 98.9751C450.911 99.6229 450.995 100.192 449.123 101.158V101.165Z" fill="#DC382C"/>
<path d="M449.123 98.7217C447.259 99.697 437.582 103.677 435.498 104.748C433.414 105.819 432.307 105.812 430.677 105.035C429.046 104.258 418.775 100.096 416.915 99.2094C415.978 98.7695 415.5 98.3942 415.5 98.0405V94.5003C415.5 94.5003 428.905 91.5912 431.069 90.8095C433.232 90.0279 433.98 90.004 435.818 90.6781C437.656 91.3522 448.671 93.341 450.49 94.0055V97.4954C450.495 97.8636 450.077 98.2221 449.123 98.7217Z" fill="#A32422"/>
<path d="M449.123 95.1865C447.259 96.1427 437.582 100.147 435.498 101.21C433.414 102.274 432.297 102.272 430.667 101.497C429.037 100.723 418.775 96.5562 416.915 95.6718C415.056 94.7873 415.02 94.173 416.844 93.4607C418.667 92.7483 428.905 88.7325 431.069 87.9532C433.232 87.174 433.98 87.1501 435.818 87.8241C437.657 88.4982 447.292 92.33 449.102 92.9945C450.911 93.6591 450.995 94.2112 449.123 95.1794V95.1865Z" fill="#DC382C"/>
</g>
<path d="M433.547 90.1594L435.857 89.4016L435.23 90.898L437.58 91.7776L434.551 92.0932L433.87 93.7282L432.775 91.9043L429.273 91.5888L431.888 90.647L431.102 89.1984L433.547 90.1594Z" fill="white"/>
<path d="M433.693 99.7042L428.033 97.3544L436.141 96.109L433.693 99.7042Z" fill="white"/>
<path d="M425.846 92.686C428.236 92.686 430.179 93.439 430.179 94.3593C430.179 95.2796 428.231 96.0325 425.846 96.0325C423.46 96.0325 421.509 95.2796 421.509 94.3593C421.509 93.439 423.453 92.686 425.846 92.686Z" fill="white"/>
<path d="M441.168 92.2247L445.965 94.1202L441.173 96.0158L441.168 92.2247Z" fill="#741113"/>
<path d="M441.168 92.2247L441.173 96.0158L440.652 96.219L435.857 94.3234L441.168 92.2247Z" fill="#AC2724"/>
<path d="M428.215 156.22V152.533L425.56 155.191C425.846 155.39 426.116 155.553 426.369 155.686C426.623 155.82 426.86 155.923 427.081 156.001C427.303 156.08 427.508 156.133 427.697 156.168C427.886 156.202 428.058 156.218 428.215 156.22ZM441.79 155.914C441.794 155.918 441.82 155.939 441.868 155.97C441.916 156 441.986 156.04 442.079 156.078C442.172 156.117 442.288 156.155 442.428 156.184C442.568 156.212 442.732 156.231 442.921 156.231C443.079 156.231 443.253 156.217 443.444 156.184C443.635 156.151 443.842 156.098 444.065 156.02C444.289 155.942 444.53 155.838 444.787 155.704C445.044 155.569 445.318 155.404 445.608 155.202L443.594 153.228L436.916 146.525L433.985 149.456L430.033 145.38L420.112 155.188C420.403 155.39 420.676 155.556 420.933 155.69C421.19 155.824 421.43 155.928 421.654 156.006C421.878 156.084 422.085 156.137 422.275 156.17C422.466 156.204 422.64 156.217 422.797 156.217C422.986 156.217 423.15 156.199 423.29 156.17C423.43 156.142 423.546 156.103 423.639 156.064C423.732 156.026 423.802 155.987 423.85 155.956C423.898 155.926 423.924 155.904 423.928 155.9L428.407 151.421L430.008 149.886L434.443 154.32L435.992 155.914C435.997 155.918 436.022 155.939 436.07 155.97C436.118 156 436.188 156.04 436.281 156.078C436.374 156.117 436.49 156.155 436.63 156.184C436.77 156.212 436.935 156.231 437.124 156.231C437.281 156.231 437.455 156.217 437.646 156.184C437.837 156.151 438.044 156.098 438.268 156.02C438.491 155.942 438.732 155.838 438.989 155.704C439.246 155.569 439.52 155.404 439.811 155.202L436.252 151.717L436.914 151.055L439.994 154.134L441.79 155.914ZM441.751 137.34L450.5 152.497L441.751 167.654H424.249L415.5 152.497L424.249 137.34H441.751Z" fill="#0D597F"/>
<path d="M436.293 151.759L433.963 149.433L434.128 149.266L436.475 151.587L436.293 151.759Z" fill="#0D597F"/>
<path fill-rule="evenodd" clip-rule="evenodd" d="M429.27 187.654C426.524 187.654 424.298 189.502 424.298 191.781V194.638H432.904V195.432H420.473C417.726 195.432 415.5 197.28 415.5 199.559L415.5 205.749C415.5 208.029 417.726 209.876 420.473 209.876H423.342V206.384C423.342 204.105 425.568 202.257 428.314 202.257H437.495C439.818 202.257 441.702 200.694 441.702 198.765V191.781C441.702 189.502 439.476 187.654 436.729 187.654H429.27ZM428.123 192.733C429.074 192.733 429.844 192.094 429.844 191.305C429.844 190.516 429.074 189.876 428.123 189.876C427.172 189.876 426.402 190.516 426.402 191.305C426.402 192.094 427.172 192.733 428.123 192.733Z" fill="url(#paint0_linear_9_253)"/>
<path fill-rule="evenodd" clip-rule="evenodd" d="M436.73 217.654C439.476 217.654 441.702 215.806 441.702 213.527V210.67L433.096 210.67L433.096 209.876L445.527 209.876C448.274 209.876 450.5 208.029 450.5 205.749V199.559C450.5 197.28 448.274 195.432 445.527 195.432L442.658 195.432V198.924C442.658 201.203 440.432 203.051 437.686 203.051L428.505 203.051C426.182 203.051 424.298 204.614 424.298 206.543L424.298 213.527C424.298 215.806 426.524 217.654 429.271 217.654H436.73ZM437.877 212.575C436.926 212.575 436.156 213.214 436.156 214.003C436.156 214.792 436.926 215.432 437.877 215.432C438.828 215.432 439.598 214.792 439.598 214.003C439.598 213.214 438.828 212.575 437.877 212.575Z" fill="url(#paint1_linear_9_253)"/>
<rect x="383.5" y="64.5" width="99" height="176" rx="4.5" stroke="black"/>
<rect x="386.5" y="54.5" width="64" height="23" rx="4.5" fill="#E5F2FC"/>
<path d="M395.91 71V69.921H397.808V62.979H395.91V61.9H400.876V62.979H398.978V69.921H400.876V71H395.91ZM402.962 71V64.357H404.067V65.033C404.418 64.539 405.003 64.24 405.9 64.24C406.771 64.24 407.46 64.591 407.876 65.189C408.266 64.682 408.877 64.24 410.047 64.24C411.516 64.24 412.543 65.228 412.543 66.749V71H411.438V66.996C411.438 65.878 410.931 65.28 409.878 65.28C408.994 65.28 408.318 65.761 408.318 66.996V71H407.213V66.996C407.213 65.878 406.706 65.28 405.653 65.28C404.769 65.28 404.067 65.761 404.067 66.996V71H402.962ZM416.966 71.117C415.302 71.117 414.236 70.103 414.236 68.335V67.022C414.236 65.254 415.302 64.24 416.966 64.24C417.629 64.24 418.188 64.435 418.604 64.799V64.357H419.709V71H418.604V70.558C418.188 70.922 417.629 71.117 416.966 71.117ZM415.341 68.335C415.341 69.687 416.004 70.077 416.966 70.077C417.863 70.077 418.604 69.687 418.604 68.335V67.022C418.604 65.8 417.863 65.28 416.966 65.28C416.004 65.28 415.341 65.8 415.341 67.022V68.335ZM424.178 74.094C422.475 74.094 421.643 73.119 421.604 71.845H422.696C422.748 72.482 423.008 73.093 424.178 73.093C425.452 73.093 425.764 72.43 425.764 71.559V70.558C425.348 70.922 424.789 71.117 424.126 71.117C422.462 71.117 421.396 70.103 421.396 68.335V67.022C421.396 65.254 422.462 64.24 424.126 64.24C424.789 64.24 425.348 64.435 425.764 64.799V64.357H426.869V71.585C426.869 72.976 426.076 74.094 424.178 74.094ZM422.501 68.335C422.501 69.557 423.294 70.077 424.126 70.077C425.023 70.077 425.764 69.557 425.764 68.335V67.022C425.764 65.67 425.023 65.28 424.126 65.28C423.294 65.28 422.501 65.67 422.501 67.022V68.335ZM431.299 71.117C429.635 71.117 428.556 70.103 428.556 68.335V67.022C428.556 65.254 429.635 64.24 431.299 64.24C432.859 64.24 433.99 65.124 434.016 67.022V68.075H429.661V68.335C429.661 69.687 430.337 70.077 431.299 70.077C432.105 70.077 432.781 69.791 432.898 68.907H434.003C433.886 70.311 432.768 71.117 431.299 71.117ZM429.661 67.1H432.911V67.022C432.885 65.696 432.17 65.254 431.299 65.254C430.337 65.254 429.661 65.696 429.661 67.022V67.1ZM438.027 71.117C436.454 71.117 435.349 70.35 435.31 68.803H436.402C436.402 69.687 437.078 70.077 438.027 70.077C438.989 70.077 439.548 69.674 439.548 69.115C439.548 68.712 439.262 68.426 438.664 68.27L437.104 67.88C436.155 67.646 435.583 67.061 435.583 66.112C435.583 65.059 436.441 64.24 437.962 64.24C439.47 64.24 440.497 65.124 440.497 66.385H439.431C439.392 65.605 438.794 65.241 437.962 65.241C437.078 65.241 436.636 65.631 436.636 66.112C436.636 66.606 437.013 66.775 437.481 66.892L438.898 67.243C440.029 67.529 440.653 68.101 440.653 69.115C440.653 70.259 439.678 71.117 438.027 71.117Z" fill="black"/>
<rect x="386.5" y="54.5" width="64" height="23" rx="4.5" stroke="black"/>
<path d="M516 107L506 101.226V112.774L516 107ZM483 108H507V106H483V108Z" fill="black"/>
<rect x="516.5" y="65.5" width="99" height="94" rx="4.5" fill="#E5F2FC"/>
<path d="M563 93.3946L591 103.816V122.921L569 131.605L541 119.448V100.342L563 93.3946Z" fill="#20C2EF"/>
<path d="M569 112.5L591 103.816M569 112.5L541 100.342M569 112.5V131.605M591 103.816L563 93.3946L541 100.342M591 103.816V122.921L569 131.605M541 100.342V119.448L569 131.605" stroke="black" stroke-width="0.3"/>
<path d="M546 107.289V117.71" stroke="white" stroke-width="1.4" stroke-linecap="round"/>
<path d="M558 112.5V122.921" stroke="white" stroke-width="1.4" stroke-linecap="round"/>
<path d="M552 109.895V120.316" stroke="white" stroke-width="1.4" stroke-linecap="round"/>
<path d="M564 115.105V125.526" stroke="white" stroke-width="1.4" stroke-linecap="round"/>
<rect x="516.5" y="65.5" width="99" height="94" rx="4.5" stroke="black"/>
<rect x="519.5" y="54.5" width="77" height="24" rx="4.5" fill="#E5F2FC"/>
<path d="M529.868 71.617C527.58 71.617 526.28 70.213 526.28 67.73V66.17C526.28 63.687 527.58 62.283 529.868 62.283C532.039 62.283 533.248 63.57 533.404 65.559H532.221C532.078 64.298 531.467 63.388 529.868 63.388C528.113 63.388 527.45 64.467 527.45 66.17V67.73C527.45 69.433 528.113 70.512 529.868 70.512C531.428 70.512 532.078 69.654 532.195 68.445H533.378C533.209 70.382 532.013 71.617 529.868 71.617ZM534.834 67.522C534.834 65.754 535.913 64.74 537.577 64.74C539.241 64.74 540.307 65.754 540.307 67.522V68.835C540.307 70.603 539.241 71.617 537.577 71.617C535.913 71.617 534.834 70.603 534.834 68.835V67.522ZM535.939 68.835C535.939 70.187 536.615 70.577 537.577 70.577C538.539 70.577 539.202 70.187 539.202 68.835V67.522C539.202 66.3 538.539 65.78 537.577 65.78C536.615 65.78 535.939 66.3 535.939 67.522V68.835ZM542.133 71.5V64.857H543.238V65.533C543.589 65.039 544.226 64.74 545.11 64.74C546.579 64.74 547.554 65.728 547.554 67.249V71.5H546.449V67.496C546.449 66.378 545.916 65.78 544.863 65.78C543.979 65.78 543.238 66.261 543.238 67.496V71.5H542.133ZM551.856 71.5C550.543 71.5 550.088 70.759 550.088 69.849V65.897H549.113V64.857H550.114V63.375H551.193V64.857H552.818V65.897H551.193V70.46H552.844V71.5H551.856ZM556.81 71.617C555.146 71.617 554.08 70.603 554.08 68.835V67.522C554.08 65.754 555.146 64.74 556.81 64.74C557.473 64.74 558.032 64.935 558.448 65.299V64.857H559.553V71.5H558.448V71.058C558.032 71.422 557.473 71.617 556.81 71.617ZM555.185 68.835C555.185 70.187 555.848 70.577 556.81 70.577C557.707 70.577 558.448 70.187 558.448 68.835V67.522C558.448 66.3 557.707 65.78 556.81 65.78C555.848 65.78 555.185 66.3 555.185 67.522V68.835ZM561.695 71.5V64.857H562.787V71.5H561.695ZM561.63 63.479V62.205H562.852V63.479H561.63ZM565.061 71.5V64.857H566.166V65.533C566.517 65.039 567.154 64.74 568.038 64.74C569.507 64.74 570.482 65.728 570.482 67.249V71.5H569.377V67.496C569.377 66.378 568.844 65.78 567.791 65.78C566.907 65.78 566.166 66.261 566.166 67.496V71.5H565.061ZM574.914 71.617C573.25 71.617 572.171 70.603 572.171 68.835V67.522C572.171 65.754 573.25 64.74 574.914 64.74C576.474 64.74 577.605 65.624 577.631 67.522V68.575H573.276V68.835C573.276 70.187 573.952 70.577 574.914 70.577C575.72 70.577 576.396 70.291 576.513 69.407H577.618C577.501 70.811 576.383 71.617 574.914 71.617ZM573.276 67.6H576.526V67.522C576.5 66.196 575.785 65.754 574.914 65.754C573.952 65.754 573.276 66.196 573.276 67.522V67.6ZM579.444 71.5V64.857H580.549V65.624C580.874 65.143 581.355 64.857 582.239 64.857H582.902V65.962H582.239C581.238 65.962 580.549 66.521 580.549 67.899V71.5H579.444ZM586.72 71.617C585.147 71.617 584.042 70.85 584.003 69.303H585.095C585.095 70.187 585.771 70.577 586.72 70.577C587.682 70.577 588.241 70.174 588.241 69.615C588.241 69.212 587.955 68.926 587.357 68.77L585.797 68.38C584.848 68.146 584.276 67.561 584.276 66.612C584.276 65.559 585.134 64.74 586.655 64.74C588.163 64.74 589.19 65.624 589.19 66.885H588.124C588.085 66.105 587.487 65.741 586.655 65.741C585.771 65.741 585.329 66.131 585.329 66.612C585.329 67.106 585.706 67.275 586.174 67.392L587.591 67.743C588.722 68.029 589.346 68.601 589.346 69.615C589.346 70.759 588.371 71.617 586.72 71.617Z" fill="black"/>
<rect x="519.5" y="54.5" width="77" height="24" rx="4.5" stroke="black"/>
<rect x="245.5" y="20.5" width="107" height="27" rx="4.5" fill="#E5F2FC"/>
<path d="M256.11 39V28.35H259.98C261.14 28.35 262.11 28.59 262.89 29.07C263.67 29.54 264.255 30.18 264.645 30.99C265.035 31.79 265.23 32.68 265.23 33.66C265.23 34.74 265.015 35.68 264.585 36.48C264.155 37.28 263.545 37.9 262.755 38.34C261.975 38.78 261.05 39 259.98 39H256.11ZM263.145 33.66C263.145 32.97 263.02 32.365 262.77 31.845C262.52 31.315 262.16 30.905 261.69 30.615C261.22 30.315 260.65 30.165 259.98 30.165H258.18V37.185H259.98C260.66 37.185 261.235 37.035 261.705 36.735C262.175 36.425 262.53 36.005 262.77 35.475C263.02 34.935 263.145 34.33 263.145 33.66ZM270.282 39.15C269.642 39.15 269.067 39.045 268.557 38.835C268.047 38.615 267.612 38.315 267.252 37.935C266.902 37.555 266.632 37.12 266.442 36.63C266.252 36.14 266.157 35.625 266.157 35.085C266.157 34.535 266.252 34.015 266.442 33.525C266.632 33.035 266.902 32.6 267.252 32.22C267.612 31.84 268.047 31.545 268.557 31.335C269.067 31.115 269.642 31.005 270.282 31.005C270.922 31.005 271.492 31.115 271.992 31.335C272.502 31.545 272.937 31.84 273.297 32.22C273.657 32.6 273.927 33.035 274.107 33.525C274.297 34.015 274.392 34.535 274.392 35.085C274.392 35.625 274.297 36.14 274.107 36.63C273.927 37.12 273.657 37.555 273.297 37.935C272.947 38.315 272.517 38.615 272.007 38.835C271.497 39.045 270.922 39.15 270.282 39.15ZM268.227 35.085C268.227 35.545 268.317 35.955 268.497 36.315C268.677 36.665 268.922 36.94 269.232 37.14C269.542 37.34 269.892 37.44 270.282 37.44C270.662 37.44 271.007 37.34 271.317 37.14C271.627 36.93 271.872 36.65 272.052 36.3C272.242 35.94 272.337 35.53 272.337 35.07C272.337 34.62 272.242 34.215 272.052 33.855C271.872 33.495 271.627 33.215 271.317 33.015C271.007 32.815 270.662 32.715 270.282 32.715C269.892 32.715 269.542 32.82 269.232 33.03C268.922 33.23 268.677 33.51 268.497 33.87C268.317 34.22 268.227 34.625 268.227 35.085ZM279.409 39.15C278.769 39.15 278.194 39.045 277.684 38.835C277.174 38.615 276.739 38.315 276.379 37.935C276.019 37.545 275.739 37.105 275.539 36.615C275.349 36.125 275.254 35.61 275.254 35.07C275.254 34.33 275.419 33.655 275.749 33.045C276.089 32.425 276.569 31.93 277.189 31.56C277.809 31.19 278.544 31.005 279.394 31.005C280.244 31.005 280.974 31.19 281.584 31.56C282.194 31.93 282.649 32.415 282.949 33.015L280.984 33.615C280.814 33.325 280.589 33.105 280.309 32.955C280.029 32.795 279.719 32.715 279.379 32.715C278.999 32.715 278.649 32.815 278.329 33.015C278.019 33.205 277.774 33.48 277.594 33.84C277.414 34.19 277.324 34.6 277.324 35.07C277.324 35.53 277.414 35.94 277.594 36.3C277.784 36.65 278.034 36.93 278.344 37.14C278.654 37.34 278.999 37.44 279.379 37.44C279.619 37.44 279.844 37.4 280.054 37.32C280.274 37.24 280.469 37.13 280.639 36.99C280.809 36.85 280.934 36.69 281.014 36.51L282.979 37.11C282.799 37.5 282.534 37.85 282.184 38.16C281.844 38.47 281.439 38.715 280.969 38.895C280.509 39.065 279.989 39.15 279.409 39.15ZM289.586 39L287.291 35.61L286.226 36.66V39H284.216V28.05H286.226V34.68L289.391 31.155H291.521L288.596 34.485L291.731 39H289.586ZM295.815 39.15C295.185 39.15 294.615 39.045 294.105 38.835C293.595 38.615 293.16 38.32 292.8 37.95C292.44 37.57 292.16 37.14 291.96 36.66C291.77 36.17 291.675 35.655 291.675 35.115C291.675 34.365 291.84 33.68 292.17 33.06C292.51 32.44 292.99 31.945 293.61 31.575C294.24 31.195 294.98 31.005 295.83 31.005C296.69 31.005 297.425 31.195 298.035 31.575C298.645 31.945 299.11 32.44 299.43 33.06C299.76 33.67 299.925 34.33 299.925 35.04C299.925 35.16 299.92 35.285 299.91 35.415C299.9 35.535 299.89 35.635 299.88 35.715H293.805C293.845 36.115 293.96 36.465 294.15 36.765C294.35 37.065 294.6 37.295 294.9 37.455C295.21 37.605 295.54 37.68 295.89 37.68C296.29 37.68 296.665 37.585 297.015 37.395C297.375 37.195 297.62 36.935 297.75 36.615L299.475 37.095C299.285 37.495 299.01 37.85 298.65 38.16C298.3 38.47 297.885 38.715 297.405 38.895C296.925 39.065 296.395 39.15 295.815 39.15ZM293.76 34.44H297.87C297.83 34.04 297.715 33.695 297.525 33.405C297.345 33.105 297.105 32.875 296.805 32.715C296.505 32.545 296.17 32.46 295.8 32.46C295.44 32.46 295.11 32.545 294.81 32.715C294.52 32.875 294.28 33.105 294.09 33.405C293.91 33.695 293.8 34.04 293.76 34.44ZM305.829 32.88C305.219 32.88 304.674 33 304.194 33.24C303.714 33.47 303.369 33.805 303.159 34.245V39H301.149V31.14H302.994V32.82C303.274 32.28 303.629 31.855 304.059 31.545C304.489 31.235 304.944 31.065 305.424 31.035C305.534 31.035 305.619 31.035 305.679 31.035C305.739 31.035 305.789 31.04 305.829 31.05V32.88ZM319.367 28.35V39H317.312V34.455H312.482V39H310.412V28.35H312.482V32.655H317.312V28.35H319.367ZM324.892 39.15C324.252 39.15 323.677 39.045 323.167 38.835C322.657 38.615 322.222 38.315 321.862 37.935C321.512 37.555 321.242 37.12 321.052 36.63C320.862 36.14 320.767 35.625 320.767 35.085C320.767 34.535 320.862 34.015 321.052 33.525C321.242 33.035 321.512 32.6 321.862 32.22C322.222 31.84 322.657 31.545 323.167 31.335C323.677 31.115 324.252 31.005 324.892 31.005C325.532 31.005 326.102 31.115 326.602 31.335C327.112 31.545 327.547 31.84 327.907 32.22C328.267 32.6 328.537 33.035 328.717 33.525C328.907 34.015 329.002 34.535 329.002 35.085C329.002 35.625 328.907 36.14 328.717 36.63C328.537 37.12 328.267 37.555 327.907 37.935C327.557 38.315 327.127 38.615 326.617 38.835C326.107 39.045 325.532 39.15 324.892 39.15ZM322.837 35.085C322.837 35.545 322.927 35.955 323.107 36.315C323.287 36.665 323.532 36.94 323.842 37.14C324.152 37.34 324.502 37.44 324.892 37.44C325.272 37.44 325.617 37.34 325.927 37.14C326.237 36.93 326.482 36.65 326.662 36.3C326.852 35.94 326.947 35.53 326.947 35.07C326.947 34.62 326.852 34.215 326.662 33.855C326.482 33.495 326.237 33.215 325.927 33.015C325.617 32.815 325.272 32.715 324.892 32.715C324.502 32.715 324.152 32.82 323.842 33.03C323.532 33.23 323.287 33.51 323.107 33.87C322.927 34.22 322.837 34.625 322.837 35.085ZM333.253 39.15C332.583 39.15 331.943 39.04 331.333 38.82C330.723 38.6 330.198 38.275 329.758 37.845L330.478 36.54C330.948 36.92 331.408 37.2 331.858 37.38C332.318 37.56 332.758 37.65 333.178 37.65C333.568 37.65 333.878 37.58 334.108 37.44C334.348 37.3 334.468 37.09 334.468 36.81C334.468 36.62 334.403 36.475 334.273 36.375C334.143 36.265 333.953 36.17 333.703 36.09C333.463 36.01 333.168 35.92 332.818 35.82C332.238 35.63 331.753 35.445 331.363 35.265C330.973 35.085 330.678 34.86 330.478 34.59C330.288 34.31 330.193 33.955 330.193 33.525C330.193 33.005 330.323 32.56 330.583 32.19C330.853 31.81 331.223 31.515 331.693 31.305C332.173 31.095 332.733 30.99 333.373 30.99C333.933 30.99 334.463 31.08 334.963 31.26C335.463 31.43 335.918 31.71 336.328 32.1L335.518 33.375C335.118 33.065 334.738 32.84 334.378 32.7C334.018 32.55 333.653 32.475 333.283 32.475C333.073 32.475 332.873 32.5 332.683 32.55C332.503 32.6 332.353 32.685 332.233 32.805C332.123 32.915 332.068 33.075 332.068 33.285C332.068 33.475 332.118 33.625 332.218 33.735C332.328 33.835 332.488 33.925 332.698 34.005C332.918 34.085 333.183 34.175 333.493 34.275C334.123 34.455 334.653 34.64 335.083 34.83C335.523 35.02 335.853 35.255 336.073 35.535C336.293 35.805 336.403 36.18 336.403 36.66C336.403 37.44 336.118 38.05 335.548 38.49C334.978 38.93 334.213 39.15 333.253 39.15ZM342.437 38.595C342.267 38.665 342.062 38.745 341.822 38.835C341.582 38.925 341.322 38.995 341.042 39.045C340.772 39.105 340.497 39.135 340.217 39.135C339.847 39.135 339.507 39.07 339.197 38.94C338.887 38.81 338.637 38.605 338.447 38.325C338.267 38.035 338.177 37.66 338.177 37.2V32.685H337.142V31.14H338.177V28.59H340.187V31.14H341.837V32.685H340.187V36.525C340.197 36.795 340.272 36.99 340.412 37.11C340.552 37.23 340.727 37.29 340.937 37.29C341.147 37.29 341.352 37.255 341.552 37.185C341.752 37.115 341.912 37.055 342.032 37.005L342.437 38.595Z" fill="black"/>
<rect x="245.5" y="20.5" width="107" height="27" rx="4.5" stroke="black"/>
<rect x="656" y="34" width="190" height="420" rx="5" fill="#4888C7"/>
<rect x="676.5" y="64.5" width="149" height="214" rx="4.5" fill="#E5F2FC"/>
<path d="M776 109C776 122.8 764.812 134 751 134C737.188 134 726 122.8 726 109C726 95.1875 737.188 84 751 84C764.812 84 776 95.1875 776 109Z" fill="#E95420"/>
<path d="M734.61 105.708C732.807 105.708 731.357 107.19 731.357 109.006C731.357 110.822 732.819 112.305 734.61 112.305C736.401 112.305 737.863 110.822 737.863 109.006C737.863 107.178 736.401 105.708 734.61 105.708ZM757.842 120.693C756.283 121.607 755.759 123.621 756.648 125.203C757.55 126.784 759.536 127.327 761.095 126.413C762.654 125.499 763.178 123.485 762.289 121.904C761.375 120.335 759.389 119.791 757.842 120.693ZM741.676 109.006C741.676 105.745 743.272 102.866 745.72 101.124L743.345 97.0843C740.494 99.0116 738.387 101.964 737.497 105.411C738.521 106.264 739.178 107.561 739.178 109.006C739.178 110.452 738.521 111.749 737.497 112.601C738.374 116.048 740.494 119.001 743.345 120.928L745.72 116.888C743.272 115.146 741.676 112.268 741.676 109.006ZM751.178 99.3699C756.149 99.3699 760.218 103.224 760.644 108.154L765.286 108.08C765.054 104.447 763.495 101.186 761.083 98.7892C759.84 99.2587 758.415 99.1846 757.184 98.468C755.942 97.7391 755.174 96.5284 754.955 95.1942C753.749 94.8606 752.482 94.6753 751.178 94.6753C748.925 94.6753 746.805 95.2065 744.916 96.1578L747.182 100.259C748.388 99.6911 749.753 99.3699 751.178 99.3699ZM751.178 118.642C749.753 118.642 748.388 118.321 747.17 117.753L744.904 121.855C746.793 122.806 748.925 123.337 751.166 123.337C752.47 123.337 753.737 123.152 754.943 122.818C755.15 121.496 755.93 120.273 757.172 119.544C758.403 118.815 759.84 118.754 761.071 119.223C763.471 116.826 765.042 113.565 765.274 109.933L760.632 109.859C760.218 114.776 756.149 118.642 751.178 118.642ZM757.83 97.3067C759.389 98.2209 761.375 97.6773 762.277 96.096C763.178 94.5147 762.642 92.5009 761.083 91.5867C759.523 90.6725 757.538 91.2161 756.636 92.7974C755.747 94.3788 756.283 96.3925 757.83 97.3067Z" fill="white"/>
<path d="M764.053 186.4C764.4 183.516 764.296 183.095 766.442 183.561L766.988 183.61C768.64 183.684 770.799 183.344 772.09 182.755C774.821 181.488 776.44 179.371 773.747 179.928C767.605 181.195 767.159 179.114 767.159 179.114C773.647 169.486 776.362 157.265 774.017 154.274C767.632 146.113 756.578 149.972 756.393 150.074L756.334 150.085C755.122 149.83 753.783 149.681 752.232 149.66C749.452 149.617 747.343 150.389 745.74 151.603C745.74 151.603 726.023 143.479 726.939 161.82C727.134 165.722 732.529 191.363 738.969 183.605C741.326 180.77 743.6 178.375 743.6 178.375C744.727 179.125 746.081 179.507 747.498 179.369L747.609 179.276C747.576 179.643 747.591 180.013 747.653 180.377C745.996 182.23 746.484 182.555 743.169 183.238C739.815 183.928 741.787 185.159 743.071 185.482C744.631 185.873 748.24 186.426 750.68 183.012L750.582 183.401C751.233 183.922 751.188 187.142 751.284 189.442C751.379 191.741 751.53 193.89 752 195.155C752.47 196.42 753.02 199.682 757.377 198.768C761.018 197.988 763.802 196.864 764.058 186.419" fill="black"/>
<path d="M764.053 186.4C764.4 183.516 764.296 183.095 766.442 183.561L766.988 183.61C768.64 183.684 770.799 183.344 772.09 182.755C774.821 181.488 776.44 179.371 773.747 179.928C767.605 181.195 767.159 179.114 767.159 179.114C773.647 169.486 776.362 157.265 774.017 154.274C767.633 146.113 756.578 149.972 756.393 150.074L756.334 150.085C755.122 149.83 753.783 149.681 752.232 149.66C749.452 149.617 747.343 150.389 745.74 151.603C745.74 151.603 726.023 143.479 726.939 161.82C727.134 165.722 732.529 191.363 738.969 183.605C741.326 180.77 743.6 178.375 743.6 178.375C744.727 179.125 746.081 179.507 747.498 179.369L747.609 179.276C747.576 179.643 747.591 180.013 747.653 180.377C745.996 182.23 746.484 182.555 743.169 183.238C739.815 183.928 741.787 185.159 743.071 185.482C744.631 185.873 748.24 186.426 750.68 183.012L750.582 183.401C751.233 183.922 751.188 187.142 751.284 189.442C751.379 191.741 751.53 193.89 752 195.155C752.47 196.42 753.02 199.682 757.377 198.768C761.018 197.988 763.802 196.864 764.058 186.419" stroke="black" stroke-width="5.3725"/>
<path d="M773.728 179.947C767.586 181.214 767.139 179.133 767.139 179.133C773.628 169.505 776.342 157.284 774 154.293C767.615 146.132 756.561 149.994 756.376 150.094L756.317 150.104C754.966 149.833 753.594 149.69 752.217 149.677C749.437 149.634 747.328 150.406 745.726 151.62C745.726 151.62 726.006 143.496 726.924 161.837C727.119 165.739 732.514 191.38 738.954 183.622C741.326 180.77 743.6 178.375 743.6 178.375C744.727 179.125 746.081 179.507 747.498 179.369L747.609 179.276C747.576 179.643 747.591 180.013 747.653 180.377C745.995 182.23 746.484 182.555 743.169 183.238C739.815 183.928 741.787 185.159 743.071 185.482C744.631 185.873 748.24 186.426 750.68 183.012L750.582 183.401C751.233 183.922 751.687 186.787 751.611 189.384C751.534 191.982 751.483 193.763 751.993 195.157C752.504 196.551 753.014 199.684 757.371 198.77C761.012 197.99 762.897 195.965 763.163 192.594C763.35 190.196 763.771 190.549 763.8 188.407L764.14 187.391C764.529 184.139 764.204 183.091 766.446 183.58L766.993 183.629C768.644 183.703 770.806 183.363 772.072 182.774C774.804 181.508 776.421 179.391 773.728 179.947Z" fill="#336791"/>
<path d="M750.941 181.79C750.771 187.839 750.984 193.931 751.575 195.393C752.166 196.855 753.435 199.75 757.794 198.819C761.435 198.039 762.761 196.528 763.335 193.193L764.68 182.53M745.717 151.467C745.717 151.467 725.985 143.398 726.903 161.739C727.098 165.641 732.493 191.282 738.933 183.525C741.283 180.691 743.409 178.475 743.409 178.475M756.374 149.994C755.694 150.206 767.35 145.732 773.977 154.198C776.315 157.188 773.605 169.41 767.116 179.038" stroke="white" stroke-width="1.79" stroke-linecap="round" stroke-linejoin="round"/>
<path d="M767.118 179.034C767.118 179.034 767.543 181.116 773.707 179.845C776.4 179.289 774.778 181.406 772.049 182.672C769.809 183.714 764.784 183.979 764.701 182.545C764.489 178.836 767.346 179.962 767.139 179.034C766.952 178.196 765.673 177.376 764.831 175.327C764.094 173.541 754.714 159.832 767.433 161.866C767.9 161.771 764.117 149.751 752.215 149.577C740.312 149.403 740.688 164.211 740.688 164.211" stroke="white" stroke-width="1.79" stroke-linecap="round" stroke-linejoin="bevel"/>
<path d="M747.611 180.305C745.953 182.158 746.442 182.483 743.126 183.165C739.772 183.856 741.745 185.087 743.028 185.41C744.588 185.801 748.197 186.354 750.637 182.938C751.381 181.896 750.633 180.239 749.613 179.818C749.12 179.614 748.461 179.359 747.615 180.307L747.611 180.305Z" stroke="white" stroke-width="1.79" stroke-linejoin="round"/>
<path d="M747.502 180.273C747.332 179.182 747.86 177.888 748.423 176.37C749.269 174.096 751.22 171.822 749.66 164.602C748.497 159.224 740.69 163.482 740.69 164.211C740.69 164.94 741.043 167.909 740.563 171.363C739.932 175.873 743.432 179.686 747.462 179.297" stroke="white" stroke-width="1.79" stroke-linecap="round" stroke-linejoin="round"/>
<path d="M745.645 164.102C745.609 164.351 746.102 165.016 746.742 165.106C747.381 165.195 747.928 164.676 747.964 164.425C748 164.175 747.507 163.903 746.867 163.813C746.227 163.724 745.677 163.856 745.645 164.102Z" fill="white" stroke="white" stroke-width="0.5975"/>
<path d="M765.122 163.594C765.156 163.843 764.665 164.508 764.026 164.598C763.386 164.687 762.835 164.168 762.804 163.917C762.772 163.667 763.26 163.395 763.9 163.305C764.54 163.216 765.09 163.348 765.122 163.594Z" fill="white" stroke="white" stroke-width="0.2975"/>
<path d="M767.409 161.871C767.516 163.826 766.988 165.154 766.92 167.235C766.823 170.258 768.361 173.718 766.043 177.182" stroke="white" stroke-width="1.79" stroke-linecap="round" stroke-linejoin="round"/>
<path d="M729.349 251.501C729.575 251.894 729.903 252.219 730.298 252.442L749.71 263.65L749.71 263.649C750.101 263.879 750.547 264 751 264C751.454 264 751.899 263.879 752.29 263.649L771.703 252.442C772.097 252.218 772.425 251.893 772.651 251.5C772.878 251.108 772.996 250.662 772.992 250.208V227.794L772.992 227.793C772.995 227.339 772.877 226.893 772.65 226.5C772.424 226.108 772.096 225.783 771.702 225.559L752.289 214.351C751.898 214.122 751.453 214 751 214C750.547 214 750.102 214.121 749.711 214.351L730.299 225.559C729.904 225.782 729.577 226.107 729.35 226.5C729.123 226.893 729.005 227.339 729.009 227.793L729.008 227.794V250.208C729.004 250.662 729.122 251.108 729.349 251.501Z" fill="#009639"/>
<path d="M744.785 247.533C744.785 248.196 744.522 248.83 744.054 249.299C743.585 249.767 742.95 250.03 742.288 250.03C741.626 250.03 740.991 249.767 740.523 249.299C740.055 248.83 739.792 248.196 739.792 247.533L739.793 247.534L739.795 230.397C739.817 230.05 739.909 229.711 740.064 229.4C740.22 229.089 740.436 228.812 740.7 228.586C740.964 228.36 741.271 228.189 741.603 228.083C741.934 227.978 742.283 227.94 742.629 227.971C743.273 227.963 743.911 228.095 744.498 228.358C745.086 228.62 745.609 229.008 746.032 229.493L746.787 230.396L757.216 242.877V230.467H757.215C757.215 230.139 757.28 229.814 757.405 229.511C757.53 229.208 757.714 228.933 757.946 228.701C758.178 228.47 758.453 228.286 758.756 228.16C759.059 228.035 759.384 227.97 759.711 227.97C760.039 227.97 760.364 228.035 760.667 228.16C760.97 228.286 761.245 228.47 761.477 228.701C761.709 228.933 761.892 229.208 762.018 229.511C762.143 229.814 762.208 230.139 762.208 230.467L762.205 247.602C762.183 247.949 762.091 248.289 761.936 248.6C761.78 248.911 761.564 249.187 761.3 249.414C761.035 249.64 760.728 249.811 760.397 249.916C760.066 250.022 759.717 250.06 759.37 250.028C758.727 250.036 758.089 249.905 757.501 249.642C756.914 249.379 756.39 248.992 755.967 248.507L744.784 235.123V247.534L744.785 247.533Z" fill="white"/>
<rect x="676.5" y="64.5" width="149" height="214" rx="4.5" stroke="black"/>
<rect x="681.5" y="54.5" width="66" height="25" rx="4.5" fill="#E5F2FC"/>
<path d="M691.91 72V70.921H693.808V63.979H691.91V62.9H696.876V63.979H694.978V70.921H696.876V72H691.91ZM698.962 72V65.357H700.067V66.033C700.418 65.539 701.003 65.24 701.9 65.24C702.771 65.24 703.46 65.591 703.876 66.189C704.266 65.682 704.877 65.24 706.047 65.24C707.516 65.24 708.543 66.228 708.543 67.749V72H707.438V67.996C707.438 66.878 706.931 66.28 705.878 66.28C704.994 66.28 704.318 66.761 704.318 67.996V72H703.213V67.996C703.213 66.878 702.706 66.28 701.653 66.28C700.769 66.28 700.067 66.761 700.067 67.996V72H698.962ZM712.966 72.117C711.302 72.117 710.236 71.103 710.236 69.335V68.022C710.236 66.254 711.302 65.24 712.966 65.24C713.629 65.24 714.188 65.435 714.604 65.799V65.357H715.709V72H714.604V71.558C714.188 71.922 713.629 72.117 712.966 72.117ZM711.341 69.335C711.341 70.687 712.004 71.077 712.966 71.077C713.863 71.077 714.604 70.687 714.604 69.335V68.022C714.604 66.8 713.863 66.28 712.966 66.28C712.004 66.28 711.341 66.8 711.341 68.022V69.335ZM720.178 75.094C718.475 75.094 717.643 74.119 717.604 72.845H718.696C718.748 73.482 719.008 74.093 720.178 74.093C721.452 74.093 721.764 73.43 721.764 72.559V71.558C721.348 71.922 720.789 72.117 720.126 72.117C718.462 72.117 717.396 71.103 717.396 69.335V68.022C717.396 66.254 718.462 65.24 720.126 65.24C720.789 65.24 721.348 65.435 721.764 65.799V65.357H722.869V72.585C722.869 73.976 722.076 75.094 720.178 75.094ZM718.501 69.335C718.501 70.557 719.294 71.077 720.126 71.077C721.023 71.077 721.764 70.557 721.764 69.335V68.022C721.764 66.67 721.023 66.28 720.126 66.28C719.294 66.28 718.501 66.67 718.501 68.022V69.335ZM727.299 72.117C725.635 72.117 724.556 71.103 724.556 69.335V68.022C724.556 66.254 725.635 65.24 727.299 65.24C728.859 65.24 729.99 66.124 730.016 68.022V69.075H725.661V69.335C725.661 70.687 726.337 71.077 727.299 71.077C728.105 71.077 728.781 70.791 728.898 69.907H730.003C729.886 71.311 728.768 72.117 727.299 72.117ZM725.661 68.1H728.911V68.022C728.885 66.696 728.17 66.254 727.299 66.254C726.337 66.254 725.661 66.696 725.661 68.022V68.1ZM734.027 72.117C732.454 72.117 731.349 71.35 731.31 69.803H732.402C732.402 70.687 733.078 71.077 734.027 71.077C734.989 71.077 735.548 70.674 735.548 70.115C735.548 69.712 735.262 69.426 734.664 69.27L733.104 68.88C732.155 68.646 731.583 68.061 731.583 67.112C731.583 66.059 732.441 65.24 733.962 65.24C735.47 65.24 736.497 66.124 736.497 67.385H735.431C735.392 66.605 734.794 66.241 733.962 66.241C733.078 66.241 732.636 66.631 732.636 67.112C732.636 67.606 733.013 67.775 733.481 67.892L734.898 68.243C736.029 68.529 736.653 69.101 736.653 70.115C736.653 71.259 735.678 72.117 734.027 72.117Z" fill="black"/>
<rect x="681.5" y="54.5" width="66" height="25" rx="4.5" stroke="black"/>
<rect x="676.5" y="305.5" width="149" height="54" rx="4.5" fill="#E5F2FC"/>
<path fill-rule="evenodd" clip-rule="evenodd" d="M721.915 343.97L721.178 342.793C720.77 343.18 720.271 343.402 719.783 343.402C719.56 343.402 719.442 343.375 718.955 343.25C718.468 343.111 718.125 343.07 717.744 343.07C716.02 343.07 714.902 344.011 714.902 345.466C714.902 346.518 715.376 347.169 716.35 347.432C715.955 347.529 715.52 347.737 715.323 347.973C715.178 348.139 715.113 348.36 715.113 348.623C715.113 348.845 715.165 349.039 715.244 349.205C715.336 349.358 715.468 349.482 715.626 349.551C715.941 349.676 716.455 349.759 717.244 349.773C717.652 349.773 717.902 349.787 717.994 349.787C718.481 349.815 718.731 349.897 718.915 349.995C719.099 350.106 719.231 350.355 719.231 350.632C719.231 350.909 719.06 351.186 718.81 351.352C718.573 351.518 718.191 351.588 717.692 351.588C716.876 351.588 716.428 351.283 716.428 350.715C716.428 350.465 716.455 350.41 716.507 350.258H714.876C714.81 350.396 714.718 350.59 714.718 350.978C714.718 351.463 714.902 351.878 715.27 352.238C715.876 352.834 716.863 353 717.823 353C718.876 353 719.889 352.751 720.481 352.086C720.849 351.67 721.02 351.213 721.02 350.618C721.02 349.981 720.836 349.496 720.442 349.108C719.967 348.651 719.428 348.485 718.402 348.471L717.454 348.457C717.27 348.457 717.165 348.388 717.165 348.291C717.165 348.097 717.415 347.931 717.862 347.71C717.994 347.723 718.047 347.723 718.125 347.723C719.56 347.723 720.612 346.837 720.612 345.618C720.612 345.147 720.481 344.787 720.217 344.455C720.442 344.482 720.507 344.496 720.678 344.496C721.165 344.496 721.533 344.344 721.915 343.97ZM723 337.096C723 336.3 722.509 335.562 721.674 334.956C721.749 335.199 721.791 335.446 721.791 335.699C721.791 337.979 718.607 339.931 714.092 340.739C714.603 340.796 715.133 340.828 715.677 340.828C719.722 340.828 723 339.157 723 337.096ZM720.398 335.855C720.398 338.044 715.502 339.818 709.463 339.818C703.424 339.818 698.528 338.044 698.528 335.855C698.528 335.166 699.014 334.518 699.868 333.954C699.736 334.196 699.666 334.446 699.666 334.703C699.666 336.725 703.972 338.364 709.284 338.364C714.596 338.364 718.902 336.725 718.902 334.703C718.902 334.32 718.747 333.951 718.461 333.604C719.681 334.244 720.398 335.019 720.398 335.855ZM699.736 332.352C697.531 332.891 696.032 333.946 696.032 335.16C696.032 335.912 696.607 336.602 697.567 337.147C697.279 336.685 697.122 336.2 697.122 335.699C697.122 334.436 698.099 333.275 699.736 332.352ZM721.307 328.793C721.104 328.549 720.826 328.55 720.607 328.749C720.395 329.029 720.389 329.229 720.539 329.384C720.699 329.55 721.032 329.693 721.271 329.503C721.511 329.312 721.51 329.038 721.307 328.793ZM718.528 329.703C719.213 328.749 720.522 330.437 719.038 330.672C718.444 330.766 717.441 331.416 717.01 332.441C716.403 333.959 716.666 335.082 715.621 335.758C713.393 337.197 706.528 337.741 703.573 335.894C701.256 334.446 702.051 332.151 695.423 327.093C694.556 326.432 695.583 325.73 696.232 326.18C696.881 326.629 696.287 326.749 697.596 328.059C700.241 330.704 700.214 328.326 700.632 329.226C701.51 331.117 703.447 333.022 703.447 333.022C705.387 334.285 706.937 334.561 709.799 332.625C711.614 331.397 710.871 334.578 715.322 332.285C716.945 331.449 716.878 332.004 718.528 329.703ZM699.216 327.277C699.104 327.119 698.77 327.046 698.547 327.271C698.325 327.495 698.434 327.717 698.563 327.85C698.748 328.041 699.061 328.025 699.247 327.922C699.434 327.818 699.395 327.528 699.216 327.277ZM694.615 325.521C694.76 325.361 694.944 325.059 694.628 324.481C694.398 324.058 693.637 323.885 693.368 324.047C693.101 324.209 692.773 324.833 693.222 325.108C693.8 325.463 694.178 325.999 694.615 325.521ZM722.054 324.736C721.851 324.44 721.421 324.494 720.996 324.802C720.57 325.111 720.651 325.697 720.792 325.833C721.038 326.073 721.696 325.911 721.849 325.739C722.244 325.298 722.258 325.031 722.054 324.736ZM719.606 326.613C720.215 326.326 721.173 327.259 719.787 327.96C717.805 328.962 717.595 330.205 716.344 330.996C714.239 332.325 714.883 331.049 711.497 330.567C710.193 330.381 709.774 331.835 708.756 331.415C706.409 330.446 704.77 330.631 703.25 331.867C702.699 331.625 702.124 330.688 701.898 330.312C702.514 329.709 702.265 328.7 701.917 328.147C701.57 327.593 701.149 327.75 700.687 327.241C700.224 326.733 700.861 325.407 701.453 326.426C703.673 330.244 705.13 328.656 706.943 328.428C708.683 328.21 710.221 329.157 710.692 326.473C710.77 326.034 711.197 325.929 711.241 326.655C711.284 327.381 711.557 329.149 712.514 329.377C713.47 329.605 714.229 329.153 714.453 328.902C714.677 328.651 714.795 328.688 714.893 329.31C714.992 329.933 715.234 330.793 716.577 329.835C719.324 327.875 718.538 327.117 719.606 326.613ZM711.441 324.819C711.45 324.506 711.308 324.309 710.998 324.32C710.689 324.331 710.578 324.487 710.588 324.79C710.665 325.363 710.761 325.349 710.967 325.402C711.172 325.455 711.432 325.133 711.441 324.819ZM700.428 325.358C700.563 325.188 700.576 324.964 700.397 324.712C700.285 324.555 699.761 324.447 699.539 324.671C699.316 324.895 699.519 325.248 699.692 325.302C700.014 325.401 700.156 325.7 700.428 325.358ZM718.797 345.479C718.797 346.131 718.415 346.49 717.718 346.49C717.099 346.49 716.678 346.2 716.678 345.479C716.678 344.815 717.06 344.427 717.731 344.427C718.402 344.427 718.797 344.815 718.797 345.479ZM713.744 349.455C714.324 348.762 714.586 347.931 714.586 346.712C714.586 345.563 714.35 344.787 713.81 344.122C713.231 343.402 712.481 343.056 711.521 343.056C709.705 343.056 708.495 344.537 708.495 346.768C708.495 348.997 709.692 350.438 711.521 350.438C712.56 350.438 713.231 350.064 713.744 349.455ZM712.666 346.698C712.666 348.374 712.337 349.094 711.574 349.094C711.231 349.094 710.837 348.901 710.679 348.513C710.534 348.152 710.455 347.543 710.455 346.726C710.455 346.02 710.521 345.521 710.639 345.147C710.784 344.704 711.126 344.427 711.547 344.427C711.863 344.427 712.139 344.565 712.31 344.801C712.547 345.119 712.666 345.742 712.666 346.698ZM695.885 351.559L696.74 352.557C697.569 352.224 698.608 351.477 698.871 350.3C698.964 349.912 699.003 349.662 699.003 348.415V340.709H697.135V348.623C697.135 349.662 697.095 350.05 696.951 350.396C696.78 350.784 696.358 351.255 695.885 351.559ZM700.201 340.687H700.01V350.286H701.852V346.033H704.18V344.455H701.852V342.252H704.759L704.872 341.414C703.125 341.281 701.537 340.999 700.201 340.687ZM706.325 343.028C706.483 343.319 706.575 343.638 706.601 344.039C706.852 343.679 707.273 343.305 707.601 343.139C707.746 343.07 707.983 343.028 708.18 343.028C708.443 343.028 708.562 343.056 708.838 343.18L708.351 344.815C708.18 344.718 708.036 344.676 707.838 344.676C707.444 344.676 707.088 344.87 706.759 345.272V350.286H704.996V345.548C704.996 344.593 704.891 343.873 704.746 343.471L706.325 343.028Z" fill="#40BE46"/>
<path d="M758.5 323H743.5C739.358 323 736 326.358 736 330.5V345.5C736 349.642 739.358 353 743.5 353H758.5C762.642 353 766 349.642 766 345.5V330.5C766 326.358 762.642 323 758.5 323Z" fill="#1C1816"/>
<path d="M744.25 340.25C745.493 340.25 746.5 339.243 746.5 338C746.5 336.757 745.493 335.75 744.25 335.75C743.007 335.75 742 336.757 742 338C742 339.243 743.007 340.25 744.25 340.25Z" fill="#FFFDFA"/>
<path d="M751 340.25C752.243 340.25 753.25 339.243 753.25 338C753.25 336.757 752.243 335.75 751 335.75C749.757 335.75 748.75 336.757 748.75 338C748.75 339.243 749.757 340.25 751 340.25Z" fill="#FFFDFA"/>
<path d="M744.25 347C745.493 347 746.5 345.993 746.5 344.75C746.5 343.507 745.493 342.5 744.25 342.5C743.007 342.5 742 343.507 742 344.75C742 345.993 743.007 347 744.25 347Z" fill="#6A6565"/>
<path d="M757.75 347C758.993 347 760 345.993 760 344.75C760 343.507 758.993 342.5 757.75 342.5C756.507 342.5 755.5 343.507 755.5 344.75C755.5 345.993 756.507 347 757.75 347Z" fill="#6A6565"/>
<path d="M751 347C752.243 347 753.25 345.993 753.25 344.75C753.25 343.507 752.243 342.5 751 342.5C749.757 342.5 748.75 343.507 748.75 344.75C748.75 345.993 749.757 347 751 347Z" fill="#FFFDFA"/>
<path d="M757.75 340.25C758.993 340.25 760 339.243 760 338C760 336.757 758.993 335.75 757.75 335.75C756.507 335.75 755.5 336.757 755.5 338C755.5 339.243 756.507 340.25 757.75 340.25Z" fill="#FFFDFA"/>
<path d="M744.25 333.5C745.493 333.5 746.5 332.493 746.5 331.25C746.5 330.007 745.493 329 744.25 329C743.007 329 742 330.007 742 331.25C742 332.493 743.007 333.5 744.25 333.5Z" fill="#6A6565"/>
<path d="M751 333.5C752.243 333.5 753.25 332.493 753.25 331.25C753.25 330.007 752.243 329 751 329C749.757 329 748.75 330.007 748.75 331.25C748.75 332.493 749.757 333.5 751 333.5Z" fill="#6A6565"/>
<path d="M757.75 333.5C758.993 333.5 760 332.493 760 331.25C760 330.007 758.993 329 757.75 329C756.507 329 755.5 330.007 755.5 331.25C755.5 332.493 756.507 333.5 757.75 333.5Z" fill="#6A6565"/>
<path d="M806 323H782C780.343 323 779 324.343 779 326V350C779 351.657 780.343 353 782 353H806C807.657 353 809 351.657 809 350V326C809 324.343 807.657 323 806 323Z" fill="#0055BD"/>
<path d="M779 332.75H809V342.75H779V332.75Z" fill="#116ED0"/>
<path d="M779 326C779 324.343 780.343 323 782 323H806C807.657 323 809 324.343 809 326V333H779V326Z" fill="#1C90ED"/>
<g filter="url(#filter0_d_9_253)">
<path d="M788.544 331.444C788.704 331.318 788.903 331.25 789.108 331.25H798.142C798.347 331.25 798.546 331.318 798.706 331.444L804.094 335.658C804.228 335.762 804.153 335.975 803.981 335.975H783.269C783.097 335.975 783.022 335.762 783.156 335.658L788.544 331.444Z" fill="white"/>
<path fill-rule="evenodd" clip-rule="evenodd" d="M782.75 337.766C782.75 337.274 783.156 336.875 783.656 336.875H803.594C804.094 336.875 804.5 337.274 804.5 337.766V343.859C804.5 344.351 804.094 344.75 803.594 344.75H783.656C783.156 344.75 782.75 344.351 782.75 343.859V337.766ZM802.02 340.79C802.02 341.411 801.507 341.915 800.875 341.915C800.243 341.915 799.73 341.411 799.73 340.79C799.73 340.169 800.243 339.665 800.875 339.665C801.507 339.665 802.02 340.169 802.02 340.79ZM797.632 341.915C798.264 341.915 798.776 341.411 798.776 340.79C798.776 340.169 798.264 339.665 797.632 339.665C796.999 339.665 796.487 340.169 796.487 340.79C796.487 341.411 796.999 341.915 797.632 341.915Z" fill="white"/>
</g>
<path d="M802.25 339.5H796.25V342.5H802.25V339.5Z" fill="white"/>
<path d="M794 341L795.5 342.5M795.5 342.5C795.5 341.625 795.5 339.125 795.5 339.125M795.5 342.5L797 341" stroke="#0055BD" stroke-width="2" stroke-linecap="round" stroke-linejoin="round"/>
<path d="M802.25 340.625L800.75 339.125M800.75 339.125C800.75 340 800.75 342.5 800.75 342.5M800.75 339.125L799.25 340.625" stroke="#0055BD" stroke-width="2" stroke-linecap="round" stroke-linejoin="round"/>
<rect x="676.5" y="305.5" width="149" height="54" rx="4.5" stroke="black"/>
<rect x="681.5" y="292.5" width="84" height="25" rx="4.5" fill="#E5F2FC"/>
<path d="M692.3 310V300.9H697.89V301.966H693.47V304.774H697.487V305.84H693.47V308.934H697.89V310H692.3ZM698.928 310L701.086 306.659L699.006 303.357H700.319L701.866 305.905L703.4 303.357H704.726L702.633 306.633L704.765 310H703.478L701.866 307.374L700.228 310H698.928ZM708.291 310C706.978 310 706.523 309.259 706.523 308.349V304.397H705.548V303.357H706.549V301.875H707.628V303.357H709.253V304.397H707.628V308.96H709.279V310H708.291ZM713.258 310.117C711.594 310.117 710.515 309.103 710.515 307.335V306.022C710.515 304.254 711.594 303.24 713.258 303.24C714.818 303.24 715.949 304.124 715.975 306.022V307.075H711.62V307.335C711.62 308.687 712.296 309.077 713.258 309.077C714.064 309.077 714.74 308.791 714.857 307.907H715.962C715.845 309.311 714.727 310.117 713.258 310.117ZM711.62 306.1H714.87V306.022C714.844 304.696 714.129 304.254 713.258 304.254C712.296 304.254 711.62 304.696 711.62 306.022V306.1ZM717.789 310V303.357H718.894V304.033C719.245 303.539 719.882 303.24 720.766 303.24C722.235 303.24 723.21 304.228 723.21 305.749V310H722.105V305.996C722.105 304.878 721.572 304.28 720.519 304.28C719.635 304.28 718.894 304.761 718.894 305.996V310H717.789ZM727.616 310.117C726.043 310.117 724.938 309.35 724.899 307.803H725.991C725.991 308.687 726.667 309.077 727.616 309.077C728.578 309.077 729.137 308.674 729.137 308.115C729.137 307.712 728.851 307.426 728.253 307.27L726.693 306.88C725.744 306.646 725.172 306.061 725.172 305.112C725.172 304.059 726.03 303.24 727.551 303.24C729.059 303.24 730.086 304.124 730.086 305.385H729.02C728.981 304.605 728.383 304.241 727.551 304.241C726.667 304.241 726.225 304.631 726.225 305.112C726.225 305.606 726.602 305.775 727.07 305.892L728.487 306.243C729.618 306.529 730.242 307.101 730.242 308.115C730.242 309.259 729.267 310.117 727.616 310.117ZM731.994 310V303.357H733.086V310H731.994ZM731.929 301.979V300.705H733.151V301.979H731.929ZM734.839 306.022C734.839 304.254 735.918 303.24 737.582 303.24C739.246 303.24 740.312 304.254 740.312 306.022V307.335C740.312 309.103 739.246 310.117 737.582 310.117C735.918 310.117 734.839 309.103 734.839 307.335V306.022ZM735.944 307.335C735.944 308.687 736.62 309.077 737.582 309.077C738.544 309.077 739.207 308.687 739.207 307.335V306.022C739.207 304.8 738.544 304.28 737.582 304.28C736.62 304.28 735.944 304.8 735.944 306.022V307.335ZM742.139 310V303.357H743.244V304.033C743.595 303.539 744.232 303.24 745.116 303.24C746.585 303.24 747.56 304.228 747.56 305.749V310H746.455V305.996C746.455 304.878 745.922 304.28 744.869 304.28C743.985 304.28 743.244 304.761 743.244 305.996V310H742.139ZM751.966 310.117C750.393 310.117 749.288 309.35 749.249 307.803H750.341C750.341 308.687 751.017 309.077 751.966 309.077C752.928 309.077 753.487 308.674 753.487 308.115C753.487 307.712 753.201 307.426 752.603 307.27L751.043 306.88C750.094 306.646 749.522 306.061 749.522 305.112C749.522 304.059 750.38 303.24 751.901 303.24C753.409 303.24 754.436 304.124 754.436 305.385H753.37C753.331 304.605 752.733 304.241 751.901 304.241C751.017 304.241 750.575 304.631 750.575 305.112C750.575 305.606 750.952 305.775 751.42 305.892L752.837 306.243C753.968 306.529 754.592 307.101 754.592 308.115C754.592 309.259 753.617 310.117 751.966 310.117Z" fill="black"/>
<rect x="681.5" y="292.5" width="84" height="25" rx="4.5" stroke="black"/>
<rect x="676.5" y="379.5" width="149" height="54" rx="4.5" fill="#E5F2FC"/>
<path d="M720.073 413.676C719.909 412.525 719.306 411.592 718.154 410.715L717.496 410.276L717.058 410.934C716.509 411.757 716.235 412.963 716.29 414.06C716.345 414.444 716.454 415.156 716.893 415.76C716.509 415.979 715.687 416.253 714.645 416.253H694.248L694.193 416.472C694.028 417.679 694.028 421.188 696.331 423.875C698.086 425.958 700.663 427 704.063 427C711.465 427 716.893 423.6 719.47 417.404C720.457 417.404 722.65 417.404 723.747 415.266C723.802 415.211 723.857 415.102 724.021 414.663L724.131 414.444L723.528 414.005C722.87 413.621 721.28 413.457 720.073 413.676ZM710.533 406.164H707.407V408.96H710.533V406.164ZM710.533 409.564H707.407V412.36H710.533V409.564ZM706.859 409.564H703.734V412.36H706.859V409.564ZM703.24 409.564H700.115V412.36H703.24V409.564ZM699.566 412.908H696.441V415.705H699.566V412.908ZM703.24 412.908H700.115V415.705H703.24V412.908ZM706.859 412.908H703.734V415.705H706.859V412.908ZM710.533 412.908H707.407V415.705H710.533V412.908ZM714.206 412.908H711.081V415.705H714.206V412.908Z" fill="#003F8C"/>
<path d="M764.84 410.268C764.786 409.789 764.733 409.202 764.52 408.563C764.36 407.924 764.094 407.231 763.721 406.485C763.347 405.739 762.868 404.993 762.282 404.247C762.069 403.98 761.802 403.661 761.483 403.394C761.909 401.689 760.95 400.25 760.95 400.25C759.351 400.144 758.285 400.73 757.912 401.05C757.859 401.05 757.806 400.996 757.699 400.943C757.433 400.837 757.166 400.73 756.847 400.623C756.527 400.517 756.26 400.464 755.941 400.357C755.621 400.304 755.301 400.25 755.035 400.197C754.982 400.197 754.928 400.197 754.875 400.197C754.182 397.959 752.157 397 752.157 397C749.919 398.439 749.493 400.41 749.493 400.41C749.493 400.41 749.493 400.464 749.493 400.517C749.387 400.57 749.227 400.57 749.12 400.623C748.96 400.677 748.8 400.73 748.587 400.783C748.427 400.837 748.268 400.89 748.054 400.996C747.735 401.156 747.362 401.316 747.042 401.476C746.722 401.636 746.403 401.849 746.083 402.062C746.03 402.062 746.03 402.009 746.03 402.009C742.886 400.837 740.115 402.275 740.115 402.275C739.848 405.579 741.34 407.71 741.66 408.083C741.607 408.297 741.5 408.51 741.447 408.723C741.234 409.469 741.021 410.268 740.914 411.068C740.914 411.174 740.861 411.281 740.861 411.387C737.983 412.826 737.131 415.757 737.131 415.757C739.529 418.528 742.353 418.687 742.353 418.687C742.726 419.327 743.099 419.913 743.578 420.499C743.792 420.712 744.005 420.979 744.165 421.192C743.312 423.696 744.271 425.774 744.271 425.774C746.935 425.881 748.694 424.602 749.067 424.282C749.333 424.389 749.6 424.442 749.866 424.549C750.665 424.762 751.518 424.869 752.371 424.922C752.584 424.922 752.797 424.922 753.01 424.922H753.117H753.17H753.276H753.383C754.662 426.734 756.847 427 756.847 427C758.445 425.348 758.498 423.696 758.498 423.323C758.498 423.27 758.498 423.27 758.498 423.27V423.217C758.818 423.004 759.138 422.737 759.458 422.471C760.097 421.885 760.63 421.245 761.109 420.552C761.163 420.499 761.216 420.446 761.216 420.339C763.028 420.446 764.253 419.22 764.253 419.22C763.934 417.355 762.868 416.449 762.655 416.29C762.655 416.29 762.655 416.29 762.602 416.29C762.602 416.183 762.602 416.076 762.602 415.97C762.602 415.757 762.602 415.543 762.602 415.384V415.117V415.064V415.011C762.602 414.957 762.602 414.957 762.602 414.957V414.851V414.691C762.602 414.638 762.602 414.584 762.602 414.531C762.602 414.478 762.602 414.424 762.602 414.371V414.211V414.051C762.548 413.838 762.548 413.625 762.495 413.465C762.282 412.666 762.015 411.92 761.589 411.227C761.163 410.535 760.683 409.948 760.097 409.416C759.511 408.883 758.872 408.51 758.179 408.19C757.486 407.87 756.793 407.71 756.047 407.604C755.674 407.551 755.355 407.551 754.982 407.551H754.875H754.822H754.768H754.715H754.609C754.555 407.551 754.502 407.551 754.449 407.551C754.289 407.551 754.076 407.604 753.916 407.604C753.223 407.71 752.53 407.977 751.944 408.35C751.358 408.723 750.825 409.149 750.399 409.629C749.973 410.108 749.653 410.694 749.44 411.281C749.227 411.867 749.12 412.453 749.067 413.039C749.067 413.199 749.067 413.306 749.067 413.465C749.067 413.519 749.067 413.519 749.067 413.572V413.679C749.067 413.732 749.067 413.838 749.067 413.892C749.12 414.158 749.173 414.478 749.227 414.744C749.387 415.277 749.653 415.757 749.919 416.183C750.239 416.609 750.612 416.929 750.985 417.195C751.358 417.462 751.785 417.675 752.211 417.781C752.637 417.888 753.01 417.941 753.436 417.941C753.49 417.941 753.543 417.941 753.596 417.941H753.649H753.703C753.756 417.941 753.809 417.941 753.809 417.941C753.809 417.941 753.809 417.941 753.863 417.941H753.916H753.969C754.023 417.941 754.076 417.941 754.129 417.941C754.182 417.941 754.236 417.941 754.289 417.888C754.395 417.888 754.449 417.835 754.555 417.835C754.715 417.781 754.875 417.728 755.035 417.622C755.195 417.568 755.301 417.462 755.461 417.355C755.514 417.355 755.515 417.302 755.568 417.249C755.728 417.142 755.728 416.929 755.621 416.822C755.515 416.716 755.355 416.662 755.248 416.769C755.195 416.769 755.195 416.822 755.141 416.822C755.035 416.876 754.928 416.929 754.768 416.982C754.662 417.036 754.502 417.036 754.395 417.089C754.342 417.089 754.236 417.089 754.182 417.089C754.129 417.089 754.129 417.089 754.076 417.089C754.023 417.089 754.023 417.089 753.969 417.089C753.916 417.089 753.916 417.089 753.863 417.089C753.809 417.089 753.756 417.089 753.756 417.089H753.703H753.649C753.596 417.089 753.596 417.089 753.543 417.089C753.223 417.036 752.957 416.982 752.637 416.822C752.317 416.716 752.051 416.503 751.784 416.29C751.518 416.076 751.305 415.757 751.145 415.49C750.985 415.224 750.825 414.851 750.772 414.478C750.719 414.318 750.719 414.105 750.719 413.945C750.719 413.892 750.719 413.838 750.719 413.785V413.732V413.679C750.719 413.572 750.719 413.465 750.772 413.359C750.932 412.559 751.305 411.813 751.944 411.174C752.104 411.014 752.264 410.908 752.424 410.748C752.584 410.641 752.797 410.535 752.957 410.428C753.17 410.321 753.383 410.268 753.543 410.215C753.756 410.162 753.969 410.108 754.182 410.108C754.289 410.108 754.395 410.108 754.502 410.108C754.555 410.108 754.555 410.108 754.555 410.108H754.662H754.715H754.822C755.035 410.108 755.301 410.162 755.514 410.215C755.994 410.321 756.42 410.481 756.847 410.748C757.699 411.227 758.392 411.973 758.872 412.826C759.085 413.252 759.245 413.732 759.351 414.211C759.351 414.318 759.404 414.478 759.404 414.584V414.691V414.798C759.404 414.851 759.404 414.851 759.404 414.904C759.404 414.957 759.404 414.957 759.404 415.011V415.117V415.224C759.404 415.277 759.404 415.384 759.404 415.437C759.404 415.597 759.404 415.703 759.351 415.863C759.351 415.97 759.298 416.13 759.298 416.236C759.298 416.343 759.244 416.503 759.191 416.609C759.138 416.876 759.031 417.142 758.925 417.355C758.712 417.835 758.445 418.314 758.125 418.794C757.486 419.647 756.634 420.392 755.621 420.819C755.141 421.032 754.609 421.192 754.076 421.298C753.809 421.352 753.543 421.352 753.276 421.405H753.223H753.17H753.063H752.957H752.904C752.744 421.405 752.637 421.405 752.477 421.405C751.891 421.352 751.305 421.245 750.772 421.085C750.239 420.925 749.653 420.712 749.173 420.446C748.161 419.913 747.255 419.167 746.509 418.261C746.136 417.835 745.816 417.355 745.603 416.822C745.337 416.29 745.124 415.757 744.964 415.224C744.804 414.691 744.697 414.105 744.697 413.572V413.465V413.412V413.306V412.986V412.932V412.826V412.773C744.697 412.719 744.697 412.613 744.697 412.559C744.697 412.293 744.751 411.973 744.751 411.707C744.804 411.44 744.857 411.121 744.911 410.854C744.964 410.588 745.017 410.268 745.124 410.002C745.284 409.469 745.497 408.936 745.71 408.403C746.189 407.391 746.776 406.485 747.522 405.792C747.681 405.632 747.895 405.419 748.108 405.259C748.321 405.099 748.534 404.94 748.747 404.833C748.96 404.673 749.173 404.567 749.387 404.46C749.493 404.407 749.6 404.353 749.706 404.3C749.76 404.3 749.813 404.247 749.866 404.247C749.919 404.247 749.973 404.194 750.026 404.194C750.239 404.087 750.506 404.034 750.719 403.927C750.772 403.927 750.825 403.874 750.879 403.874C750.932 403.874 750.985 403.821 751.038 403.821C751.145 403.767 751.305 403.767 751.411 403.714C751.465 403.714 751.518 403.661 751.625 403.661C751.678 403.661 751.731 403.661 751.838 403.607C751.891 403.607 751.944 403.607 752.051 403.554H752.157H752.264C752.317 403.554 752.371 403.554 752.477 403.501C752.53 403.501 752.637 403.501 752.69 403.448C752.744 403.448 752.85 403.448 752.904 403.448C752.957 403.448 753.01 403.448 753.063 403.448H753.17H753.223H753.276C753.33 403.448 753.436 403.448 753.49 403.448H753.596H753.649C753.703 403.448 753.756 403.448 753.809 403.448C754.076 403.448 754.289 403.448 754.555 403.448C755.035 403.448 755.514 403.501 755.994 403.607C756.9 403.767 757.753 404.087 758.552 404.46C759.351 404.833 760.044 405.313 760.63 405.845C760.683 405.899 760.683 405.899 760.736 405.952C760.79 406.005 760.79 406.005 760.843 406.059C760.896 406.112 761.003 406.165 761.056 406.272C761.109 406.378 761.216 406.378 761.269 406.485C761.323 406.591 761.429 406.645 761.483 406.698C761.749 406.964 761.962 407.231 762.175 407.551C762.602 408.083 762.975 408.67 763.241 409.202C763.241 409.256 763.294 409.256 763.294 409.309C763.294 409.362 763.347 409.362 763.347 409.416C763.401 409.469 763.401 409.522 763.454 409.629C763.507 409.682 763.507 409.735 763.561 409.842C763.614 409.895 763.614 409.948 763.667 410.055C763.774 410.321 763.88 410.535 763.934 410.748C764.04 411.121 764.147 411.44 764.2 411.707C764.253 411.813 764.36 411.92 764.466 411.867C764.573 411.867 764.68 411.76 764.68 411.654C764.893 411.014 764.893 410.641 764.84 410.268Z" fill="url(#paint2_linear_9_253)"/>
<path d="M777.869 410.602L784.391 403.894H787.559L777.869 414.143V410.602Z" fill="#1C4188"/>
<path d="M790.913 399.795H807.869V411.907L792.776 427H777.869V413.584L790.913 399.795Z" fill="url(#paint3_linear_9_253)"/>
<path d="M796.228 415.603L795.156 412.541C795.139 412.505 795.121 412.451 795.121 412.398C795.121 412.272 795.227 412.129 795.402 412.129C795.525 412.129 795.631 412.219 795.683 412.362L796.562 414.994L797.458 412.344C797.493 412.219 797.581 412.111 797.721 412.111H797.756C797.897 412.111 798.002 412.201 798.037 412.344L798.916 414.994L799.812 412.344C799.847 412.236 799.917 412.129 800.075 412.129C800.233 412.129 800.339 412.236 800.339 412.38C800.339 412.433 800.321 412.487 800.303 412.523L799.214 415.585C799.162 415.746 799.056 415.836 798.916 415.836H798.898C798.775 415.836 798.652 415.764 798.599 415.585L797.721 412.989L796.843 415.585C796.79 415.746 796.702 415.836 796.544 415.836H796.527C796.386 415.854 796.281 415.746 796.228 415.603Z" fill="white" stroke="white" stroke-width="1.3"/>
<path d="M785.976 412.046C785.863 411.764 785.543 411.651 785.261 411.764C784.979 411.877 784.866 412.215 785.017 412.478L786.22 415.092C786.408 415.506 786.615 415.732 786.991 415.732C787.386 415.732 787.555 415.487 787.762 415.092C787.762 415.092 788.815 412.798 788.834 412.779C788.853 412.76 788.872 412.685 788.985 412.685C789.079 412.685 789.135 412.76 789.135 412.854V415.073C789.135 415.412 789.323 415.713 789.68 415.713C790.056 415.713 790.245 415.431 790.245 415.073V413.268C790.245 412.911 790.508 412.685 790.827 412.685C791.166 412.685 791.392 412.93 791.392 413.268V415.092C791.392 415.431 791.58 415.732 791.937 415.732C792.313 415.732 792.501 415.45 792.501 415.092V413.268C792.501 412.911 792.764 412.685 793.084 412.685C793.423 412.685 793.648 412.93 793.648 413.268V415.092C793.648 415.431 793.836 415.732 794.194 415.732C794.57 415.732 794.758 415.45 794.758 415.092V413.024C794.758 412.253 794.156 411.726 793.404 411.726C792.652 411.726 792.2 412.234 792.2 412.234C791.937 411.914 791.617 411.726 791.034 411.726C790.433 411.726 789.887 412.234 789.887 412.234C789.643 411.914 789.21 411.726 788.891 411.726C788.364 411.726 787.932 411.971 787.668 412.554L786.897 414.359L785.976 412.046Z" fill="white"/>
<rect x="676.5" y="379.5" width="149" height="54" rx="4.5" stroke="black"/>
<rect x="681.5" y="373.5" width="64" height="25" rx="4.5" fill="#E5F2FC"/>
<path d="M692.3 391V381.9H695.641C697.331 381.9 698.397 382.797 698.397 384.344C698.397 386.06 697.11 386.853 695.511 386.853H693.444V391H692.3ZM693.444 385.787H695.576C696.551 385.787 697.214 385.449 697.214 384.357C697.214 383.291 696.551 382.94 695.576 382.94H693.444V385.787ZM701.854 391C700.827 391 700.346 390.467 700.346 389.648V381.38H701.451V389.96H702.582V391H701.854ZM708.123 388.361V384.357H709.228V388.608C709.228 390.129 708.292 391.117 706.563 391.117C704.821 391.117 703.885 390.129 703.885 388.608V384.357H704.99V388.361C704.99 389.479 705.484 390.077 706.563 390.077C707.629 390.077 708.123 389.479 708.123 388.361ZM713.703 394.094C712 394.094 711.168 393.119 711.129 391.845H712.221C712.273 392.482 712.533 393.093 713.703 393.093C714.977 393.093 715.289 392.43 715.289 391.559V390.558C714.873 390.922 714.314 391.117 713.651 391.117C711.987 391.117 710.921 390.103 710.921 388.335V387.022C710.921 385.254 711.987 384.24 713.651 384.24C714.314 384.24 714.873 384.435 715.289 384.799V384.357H716.394V391.585C716.394 392.976 715.601 394.094 713.703 394.094ZM712.026 388.335C712.026 389.557 712.819 390.077 713.651 390.077C714.548 390.077 715.289 389.557 715.289 388.335V387.022C715.289 385.67 714.548 385.28 713.651 385.28C712.819 385.28 712.026 385.67 712.026 387.022V388.335ZM718.537 391V384.357H719.629V391H718.537ZM718.472 382.979V381.705H719.694V382.979H718.472ZM721.902 391V384.357H723.007V385.033C723.358 384.539 723.995 384.24 724.879 384.24C726.348 384.24 727.323 385.228 727.323 386.749V391H726.218V386.996C726.218 385.878 725.685 385.28 724.632 385.28C723.748 385.28 723.007 385.761 723.007 386.996V391H721.902ZM731.729 391.117C730.156 391.117 729.051 390.35 729.012 388.803H730.104C730.104 389.687 730.78 390.077 731.729 390.077C732.691 390.077 733.25 389.674 733.25 389.115C733.25 388.712 732.964 388.426 732.366 388.27L730.806 387.88C729.857 387.646 729.285 387.061 729.285 386.112C729.285 385.059 730.143 384.24 731.664 384.24C733.172 384.24 734.199 385.124 734.199 386.385H733.133C733.094 385.605 732.496 385.241 731.664 385.241C730.78 385.241 730.338 385.631 730.338 386.112C730.338 386.606 730.715 386.775 731.183 386.892L732.6 387.243C733.731 387.529 734.355 388.101 734.355 389.115C734.355 390.259 733.38 391.117 731.729 391.117Z" fill="black"/>
<rect x="681.5" y="373.5" width="64" height="25" rx="4.5" stroke="black"/>
<rect x="671.5" y="20.5" width="79" height="27" rx="4.5" fill="#E5F2FC"/>
<path d="M682.11 39V28.35H686.82C687.31 28.35 687.76 28.45 688.17 28.65C688.59 28.85 688.95 29.12 689.25 29.46C689.56 29.8 689.795 30.18 689.955 30.6C690.125 31.02 690.21 31.45 690.21 31.89C690.21 32.34 690.13 32.775 689.97 33.195C689.82 33.605 689.6 33.965 689.31 34.275C689.02 34.585 688.68 34.825 688.29 34.995L690.72 39H688.44L686.25 35.43H684.18V39H682.11ZM684.18 33.615H686.775C687.035 33.615 687.265 33.54 687.465 33.39C687.665 33.23 687.825 33.02 687.945 32.76C688.065 32.5 688.125 32.21 688.125 31.89C688.125 31.55 688.055 31.255 687.915 31.005C687.775 30.745 687.595 30.54 687.375 30.39C687.165 30.24 686.935 30.165 686.685 30.165H684.18V33.615ZM695.272 39.15C694.642 39.15 694.072 39.045 693.562 38.835C693.052 38.615 692.617 38.32 692.257 37.95C691.897 37.57 691.617 37.14 691.417 36.66C691.227 36.17 691.132 35.655 691.132 35.115C691.132 34.365 691.297 33.68 691.627 33.06C691.967 32.44 692.447 31.945 693.067 31.575C693.697 31.195 694.437 31.005 695.287 31.005C696.147 31.005 696.882 31.195 697.492 31.575C698.102 31.945 698.567 32.44 698.887 33.06C699.217 33.67 699.382 34.33 699.382 35.04C699.382 35.16 699.377 35.285 699.367 35.415C699.357 35.535 699.347 35.635 699.337 35.715H693.262C693.302 36.115 693.417 36.465 693.607 36.765C693.807 37.065 694.057 37.295 694.357 37.455C694.667 37.605 694.997 37.68 695.347 37.68C695.747 37.68 696.122 37.585 696.472 37.395C696.832 37.195 697.077 36.935 697.207 36.615L698.932 37.095C698.742 37.495 698.467 37.85 698.107 38.16C697.757 38.47 697.342 38.715 696.862 38.895C696.382 39.065 695.852 39.15 695.272 39.15ZM693.217 34.44H697.327C697.287 34.04 697.172 33.695 696.982 33.405C696.802 33.105 696.562 32.875 696.262 32.715C695.962 32.545 695.627 32.46 695.257 32.46C694.897 32.46 694.567 32.545 694.267 32.715C693.977 32.875 693.737 33.105 693.547 33.405C693.367 33.695 693.257 34.04 693.217 34.44ZM703.681 39.045C703.161 39.045 702.681 38.945 702.241 38.745C701.811 38.535 701.436 38.245 701.116 37.875C700.806 37.505 700.566 37.08 700.396 36.6C700.226 36.12 700.141 35.61 700.141 35.07C700.141 34.5 700.231 33.97 700.411 33.48C700.591 32.99 700.841 32.56 701.161 32.19C701.491 31.81 701.876 31.52 702.316 31.32C702.766 31.11 703.261 31.005 703.801 31.005C704.411 31.005 704.946 31.145 705.406 31.425C705.866 31.695 706.246 32.06 706.546 32.52V31.14H708.301V38.625C708.301 39.405 708.111 40.07 707.731 40.62C707.361 41.18 706.846 41.605 706.186 41.895C705.526 42.195 704.776 42.345 703.936 42.345C703.086 42.345 702.366 42.2 701.776 41.91C701.186 41.63 700.681 41.23 700.261 40.71L701.356 39.645C701.656 40.015 702.031 40.305 702.481 40.515C702.941 40.725 703.426 40.83 703.936 40.83C704.366 40.83 704.756 40.75 705.106 40.59C705.466 40.44 705.751 40.2 705.961 39.87C706.181 39.55 706.291 39.135 706.291 38.625V37.635C706.031 38.085 705.661 38.435 705.181 38.685C704.711 38.925 704.211 39.045 703.681 39.045ZM704.356 37.44C704.576 37.44 704.786 37.405 704.986 37.335C705.186 37.265 705.371 37.17 705.541 37.05C705.711 36.93 705.861 36.79 705.991 36.63C706.121 36.46 706.221 36.29 706.291 36.12V34.245C706.171 33.935 706.001 33.665 705.781 33.435C705.571 33.205 705.331 33.03 705.061 32.91C704.801 32.78 704.526 32.715 704.236 32.715C703.926 32.715 703.646 32.78 703.396 32.91C703.146 33.04 702.931 33.225 702.751 33.465C702.571 33.695 702.431 33.955 702.331 34.245C702.241 34.525 702.196 34.82 702.196 35.13C702.196 35.45 702.251 35.75 702.361 36.03C702.471 36.31 702.621 36.555 702.811 36.765C703.011 36.975 703.241 37.14 703.501 37.26C703.771 37.38 704.056 37.44 704.356 37.44ZM710.113 39V31.14H712.123V39H710.113ZM710.113 30.045V28.05H712.123V30.045H710.113ZM716.831 39.15C716.161 39.15 715.521 39.04 714.911 38.82C714.301 38.6 713.776 38.275 713.336 37.845L714.056 36.54C714.526 36.92 714.986 37.2 715.436 37.38C715.896 37.56 716.336 37.65 716.756 37.65C717.146 37.65 717.456 37.58 717.686 37.44C717.926 37.3 718.046 37.09 718.046 36.81C718.046 36.62 717.981 36.475 717.851 36.375C717.721 36.265 717.531 36.17 717.281 36.09C717.041 36.01 716.746 35.92 716.396 35.82C715.816 35.63 715.331 35.445 714.941 35.265C714.551 35.085 714.256 34.86 714.056 34.59C713.866 34.31 713.771 33.955 713.771 33.525C713.771 33.005 713.901 32.56 714.161 32.19C714.431 31.81 714.801 31.515 715.271 31.305C715.751 31.095 716.311 30.99 716.951 30.99C717.511 30.99 718.041 31.08 718.541 31.26C719.041 31.43 719.496 31.71 719.906 32.1L719.096 33.375C718.696 33.065 718.316 32.84 717.956 32.7C717.596 32.55 717.231 32.475 716.861 32.475C716.651 32.475 716.451 32.5 716.261 32.55C716.081 32.6 715.931 32.685 715.811 32.805C715.701 32.915 715.646 33.075 715.646 33.285C715.646 33.475 715.696 33.625 715.796 33.735C715.906 33.835 716.066 33.925 716.276 34.005C716.496 34.085 716.761 34.175 717.071 34.275C717.701 34.455 718.231 34.64 718.661 34.83C719.101 35.02 719.431 35.255 719.651 35.535C719.871 35.805 719.981 36.18 719.981 36.66C719.981 37.44 719.696 38.05 719.126 38.49C718.556 38.93 717.791 39.15 716.831 39.15ZM726.015 38.595C725.845 38.665 725.64 38.745 725.4 38.835C725.16 38.925 724.9 38.995 724.62 39.045C724.35 39.105 724.075 39.135 723.795 39.135C723.425 39.135 723.085 39.07 722.775 38.94C722.465 38.81 722.215 38.605 722.025 38.325C721.845 38.035 721.755 37.66 721.755 37.2V32.685H720.72V31.14H721.755V28.59H723.765V31.14H725.415V32.685H723.765V36.525C723.775 36.795 723.85 36.99 723.99 37.11C724.13 37.23 724.305 37.29 724.515 37.29C724.725 37.29 724.93 37.255 725.13 37.185C725.33 37.115 725.49 37.055 725.61 37.005L726.015 38.595ZM731.741 32.88C731.131 32.88 730.586 33 730.106 33.24C729.626 33.47 729.281 33.805 729.071 34.245V39H727.061V31.14H728.906V32.82C729.186 32.28 729.541 31.855 729.971 31.545C730.401 31.235 730.856 31.065 731.336 31.035C731.446 31.035 731.531 31.035 731.591 31.035C731.651 31.035 731.701 31.04 731.741 31.05V32.88ZM733.027 40.53C733.207 40.57 733.372 40.605 733.522 40.635C733.682 40.665 733.817 40.68 733.927 40.68C734.117 40.68 734.272 40.63 734.392 40.53C734.522 40.44 734.647 40.27 734.767 40.02C734.887 39.78 735.012 39.44 735.142 39L732.037 31.14H734.122L736.237 36.945L738.097 31.14H740.017L736.717 40.56C736.597 40.91 736.412 41.225 736.162 41.505C735.922 41.795 735.617 42.02 735.247 42.18C734.887 42.35 734.482 42.435 734.032 42.435C733.872 42.435 733.712 42.42 733.552 42.39C733.392 42.37 733.217 42.33 733.027 42.27V40.53Z" fill="black"/>
<rect x="671.5" y="20.5" width="79" height="27" rx="4.5" stroke="black"/>
<path d="M250 125L240 119.226V130.774L250 125ZM165 126H241V124H165V126Z" fill="black"/>
<path d="M250 215L240 209.226V220.774L250 215ZM165 216H168.036V214H165V216ZM174.107 216H180.179V214H174.107V216ZM186.25 216H192.321V214H186.25V216ZM198.393 216H204.464V214H198.393V216ZM210.536 216H216.607V214H210.536V216ZM222.679 216H228.75V214H222.679V216ZM234.821 216H240.893V214H234.821V216Z" fill="black"/>
<path d="M250 305L240 299.226V310.774L250 305ZM165 306H168.036V304H165V306ZM174.107 306H180.179V304H174.107V306ZM186.25 306H192.321V304H186.25V306ZM198.393 306H204.464V304H198.393V306ZM210.536 306H216.607V304H210.536V306ZM222.679 306H228.75V304H222.679V306ZM234.821 306H240.893V304H234.821V306Z" fill="black"/>
<defs>
<filter id="filter0_d_9_253" x="778.75" y="331.25" width="29.75" height="21.5" filterUnits="userSpaceOnUse" color-interpolation-filters="sRGB">
<feFlood flood-opacity="0" result="BackgroundImageFix"/>
<feColorMatrix in="SourceAlpha" type="matrix" values="0 0 0 0 0 0 0 0 0 0 0 0 0 0 0 0 0 0 127 0" result="hardAlpha"/>
<feOffset dy="4"/>
<feGaussianBlur stdDeviation="2"/>
<feComposite in2="hardAlpha" operator="out"/>
<feColorMatrix type="matrix" values="0 0 0 0 0 0 0 0 0 0 0 0 0 0 0 0 0 0 0.25 0"/>
<feBlend mode="normal" in2="BackgroundImageFix" result="effect1_dropShadow_9_253"/>
<feBlend mode="normal" in="SourceGraphic" in2="effect1_dropShadow_9_253" result="shape"/>
</filter>
<linearGradient id="paint0_linear_9_253" x1="428.601" y1="187.654" x2="428.601" y2="209.876" gradientUnits="userSpaceOnUse">
<stop stop-color="#327EBD"/>
<stop offset="1" stop-color="#1565A7"/>
</linearGradient>
<linearGradient id="paint1_linear_9_253" x1="437.399" y1="195.432" x2="437.399" y2="217.654" gradientUnits="userSpaceOnUse">
<stop stop-color="#FFDA4B"/>
<stop offset="1" stop-color="#F9C600"/>
</linearGradient>
<linearGradient id="paint2_linear_9_253" x1="751.087" y1="435.107" x2="751.087" y2="400.402" gradientUnits="userSpaceOnUse">
<stop stop-color="#FFF100"/>
<stop offset="1" stop-color="#F05A28"/>
</linearGradient>
<linearGradient id="paint3_linear_9_253" x1="808.055" y1="399.795" x2="777.869" y2="427" gradientUnits="userSpaceOnUse">
<stop stop-color="#1C4188"/>
<stop offset="1" stop-color="#028DD7"/>
</linearGradient>
</defs>
</svg>
